<svg xmlns="http://www.w3.org/2000/svg">
  <symbol viewBox="0 0 32 32" id="icon-twitter">
    <g clip-path="url(#clip0_9224_152)">
      <path fill-rule="evenodd" clip-rule="evenodd" d="M0 16C0 24.8202 7.17648 32 16 32C24.8202 32 32 24.8202 32 16C32 7.17982 24.8202 0 16 0C7.17984 0 0 7.17982 0 16ZM5.94191 4.96936C8.59784 2.54552 12.1292 1.06554 16 1.06554C19.8696 1.06554 23.4 2.54462 26.0557 4.96715L24.8681 6.1547C22.5199 4.03823 19.4105 2.75 16 2.75C12.5883 2.75 9.47794 4.03912 7.12944 6.15689L5.94191 4.96936ZM4.96751 5.94395C2.54476 8.59964 1.06554 12.1302 1.06554 16C1.06554 19.8694 2.54451 23.3997 4.96688 26.0553L6.15441 24.8678C4.03812 22.5196 2.75 19.4104 2.75 16C2.75 12.5893 4.03837 9.47974 6.15505 7.13149L4.96751 5.94395ZM5.94122 27.03C8.59723 29.4542 12.1289 30.9344 16 30.9344C19.8692 30.9344 23.3992 29.4557 26.0548 27.0337L24.8672 25.8461C22.5191 27.9621 19.4101 29.25 16 29.25C12.5879 29.25 9.47731 27.9606 7.12874 25.8425L5.94122 27.03ZM30.9345 16C30.9345 19.8714 29.454 23.4033 27.0295 26.0593L25.842 24.8718C27.9604 22.5232 29.25 19.4123 29.25 16C29.25 12.5881 27.9607 9.47761 25.8428 7.12907L27.0303 5.94154C29.4543 8.5975 30.9345 12.129 30.9345 16Z"/>
      <path d="M21.3116 13.5386V13.9128C21.3116 17.6814 18.5585 22.0001 13.5206 22.0001C12.0334 22.0034 10.5778 21.5546 9.33325 20.709C9.54939 20.7394 9.76741 20.7532 9.9855 20.7501C11.2183 20.7536 12.4164 20.3266 13.3873 19.5376C12.8146 19.5288 12.2591 19.3328 11.7998 18.9774C11.3404 18.622 11.0007 18.1253 10.8287 17.5579C10.9993 17.5954 11.1733 17.6143 11.3477 17.614C11.5912 17.6141 11.8336 17.5801 12.0684 17.513C11.4481 17.3846 10.89 17.0363 10.4896 16.5277C10.0893 16.0191 9.87161 15.3818 9.87379 14.7249V14.6875C10.2533 14.9077 10.6788 15.0284 11.1134 15.0393C10.5349 14.6439 10.1236 14.0341 9.96351 13.3343C9.80344 12.6346 9.90669 11.8978 10.2522 11.2745C10.9406 12.1537 11.7994 12.8727 12.7729 13.3846C13.7464 13.8966 14.8128 14.19 15.9026 14.2459C15.8487 14.0335 15.8232 13.8144 15.8269 13.5947C15.8067 13.0143 15.9591 12.4414 16.2636 11.9541C16.5681 11.4669 17.0097 11.0889 17.5285 10.8717C18.0472 10.6545 18.6178 10.6086 19.1626 10.7403C19.7074 10.872 20.1998 11.1748 20.5729 11.6075C21.1861 11.479 21.7744 11.245 22.3134 10.9152C22.109 11.5856 21.6742 12.1544 21.0918 12.5132C21.6358 12.4353 22.1662 12.2765 22.6666 12.0417C22.3039 12.6201 21.8451 13.127 21.3116 13.5386Z" fill="#110A1D"/>
    </g>
    <defs>
      <clipPath id="clip0_9224_152">
        <rect width="32" height="32" fill="white"/>
      </clipPath>
    </defs>
  </symbol>
  <symbol viewBox="0 0 32 32" id="icon-facebook">
    <g clip-path="url(#clip0_9224_165)">
      <path fill-rule="evenodd" clip-rule="evenodd" d="M0 16C0 24.8202 7.17648 32 16 32C24.8202 32 32 24.8202 32 16C32 7.17982 24.8202 0 16 0C7.17984 0 0 7.17982 0 16ZM5.94191 4.96936C8.59784 2.54552 12.1292 1.06554 16 1.06554C19.8696 1.06554 23.4 2.54462 26.0557 4.96715L24.8681 6.1547C22.5199 4.03823 19.4105 2.75 16 2.75C12.5883 2.75 9.47794 4.03912 7.12944 6.15689L5.94191 4.96936ZM4.96751 5.94395C2.54476 8.59964 1.06554 12.1302 1.06554 16C1.06554 19.8694 2.54451 23.3997 4.96688 26.0553L6.15441 24.8678C4.03812 22.5196 2.75 19.4104 2.75 16C2.75 12.5893 4.03837 9.47974 6.15505 7.13149L4.96751 5.94395ZM5.94122 27.03C8.59723 29.4542 12.1289 30.9344 16 30.9344C19.8692 30.9344 23.3992 29.4557 26.0548 27.0337L24.8672 25.8461C22.5191 27.9621 19.4101 29.25 16 29.25C12.5879 29.25 9.47731 27.9606 7.12874 25.8425L5.94122 27.03ZM30.9345 16C30.9345 19.8714 29.454 23.4033 27.0295 26.0593L25.842 24.8718C27.9604 22.5232 29.25 19.4123 29.25 16C29.25 12.5881 27.9607 9.47761 25.8428 7.12907L27.0303 5.94154C29.4543 8.5975 30.9345 12.129 30.9345 16Z" fill="#478BF9"/>
      <path d="M18.0732 11.5468H19.3266V9.42685C18.7197 9.36375 18.11 9.33259 17.4999 9.33352C15.6866 9.33352 14.4466 10.4402 14.4466 12.4668V14.2135H12.3999V16.5868H14.4466V22.6668H16.8999V16.5868H18.9399L19.2466 14.2135H16.8999V12.7002C16.8999 12.0002 17.0866 11.5468 18.0732 11.5468Z" fill="#110A1D"/>
    </g>
    <defs>
      <clipPath id="clip0_9224_165">
        <rect width="32" height="32" fill="white"/>
      </clipPath>
    </defs>
  </symbol>
  <symbol viewBox="0 0 32 32" id="icon-instagram">
    <g clip-path="url(#clip0_9224_177)">
      <path fill-rule="evenodd" clip-rule="evenodd" d="M0 16C0 24.8202 7.17648 32 16 32C24.8202 32 32 24.8202 32 16C32 7.17982 24.8202 0 16 0C7.17984 0 0 7.17982 0 16ZM5.94191 4.96936C8.59784 2.54552 12.1292 1.06554 16 1.06554C19.8696 1.06554 23.4 2.54462 26.0557 4.96715L24.8681 6.1547C22.5199 4.03823 19.4105 2.75 16 2.75C12.5883 2.75 9.47794 4.03912 7.12944 6.15689L5.94191 4.96936ZM4.96751 5.94395C2.54476 8.59964 1.06554 12.1302 1.06554 16C1.06554 19.8694 2.54451 23.3997 4.96688 26.0553L6.15441 24.8678C4.03812 22.5196 2.75 19.4104 2.75 16C2.75 12.5893 4.03837 9.47974 6.15505 7.13149L4.96751 5.94395ZM5.94122 27.03C8.59723 29.4542 12.1289 30.9344 16 30.9344C19.8692 30.9344 23.3992 29.4557 26.0548 27.0337L24.8672 25.8461C22.5191 27.9621 19.4101 29.25 16 29.25C12.5879 29.25 9.47731 27.9606 7.12874 25.8425L5.94122 27.03ZM30.9345 16C30.9345 19.8714 29.454 23.4033 27.0295 26.0593L25.842 24.8718C27.9604 22.5232 29.25 19.4123 29.25 16C29.25 12.5881 27.9607 9.47761 25.8428 7.12907L27.0303 5.94154C29.4543 8.5975 30.9345 12.129 30.9345 16Z" fill="#478BF9"/>
      <path d="M16 9.5C17.766 9.5 17.9864 9.5065 18.6793 9.539C19.3715 9.5715 19.8428 9.68005 20.2575 9.84125C20.6865 10.0064 21.0479 10.2299 21.4093 10.5907C21.7398 10.9156 21.9956 11.3087 22.1587 11.7425C22.3193 12.1565 22.4285 12.6284 22.461 13.3207C22.4915 14.0136 22.5 14.2339 22.5 16C22.5 17.766 22.4935 17.9864 22.461 18.6793C22.4285 19.3715 22.3193 19.8428 22.1587 20.2575C21.996 20.6916 21.7402 21.0847 21.4093 21.4093C21.0843 21.7397 20.6912 21.9954 20.2575 22.1587C19.8434 22.3193 19.3715 22.4285 18.6793 22.461C17.9864 22.4915 17.766 22.5 16 22.5C14.2339 22.5 14.0136 22.4935 13.3207 22.461C12.6284 22.4285 12.1572 22.3193 11.7425 22.1587C11.3085 21.9959 10.9154 21.7401 10.5907 21.4093C10.2601 21.0844 10.0044 20.6914 9.84125 20.2575C9.68005 19.8434 9.5715 19.3715 9.539 18.6793C9.50845 17.9864 9.5 17.766 9.5 16C9.5 14.2339 9.5065 14.0136 9.539 13.3207C9.5715 12.6278 9.68005 12.1572 9.84125 11.7425C10.0039 11.3084 10.2597 10.9153 10.5907 10.5907C10.9155 10.26 11.3086 10.0042 11.7425 9.84125C12.1572 9.68005 12.6278 9.5715 13.3207 9.539C14.0136 9.50845 14.2339 9.5 16 9.5ZM16 12.75C15.138 12.75 14.3114 13.0924 13.7019 13.7019C13.0924 14.3114 12.75 15.138 12.75 16C12.75 16.862 13.0924 17.6886 13.7019 18.2981C14.3114 18.9076 15.138 19.25 16 19.25C16.862 19.25 17.6886 18.9076 18.2981 18.2981C18.9076 17.6886 19.25 16.862 19.25 16C19.25 15.138 18.9076 14.3114 18.2981 13.7019C17.6886 13.0924 16.862 12.75 16 12.75ZM20.225 12.5875C20.225 12.372 20.1394 12.1653 19.987 12.013C19.8347 11.8606 19.628 11.775 19.4125 11.775C19.197 11.775 18.9903 11.8606 18.838 12.013C18.6856 12.1653 18.6 12.372 18.6 12.5875C18.6 12.803 18.6856 13.0097 18.838 13.162C18.9903 13.3144 19.197 13.4 19.4125 13.4C19.628 13.4 19.8347 13.3144 19.987 13.162C20.1394 13.0097 20.225 12.803 20.225 12.5875ZM16 14.05C16.5172 14.05 17.0132 14.2554 17.3789 14.6211C17.7446 14.9868 17.95 15.4828 17.95 16C17.95 16.5172 17.7446 17.0132 17.3789 17.3789C17.0132 17.7446 16.5172 17.95 16 17.95C15.4828 17.95 14.9868 17.7446 14.6211 17.3789C14.2554 17.0132 14.05 16.5172 14.05 16C14.05 15.4828 14.2554 14.9868 14.6211 14.6211C14.9868 14.2554 15.4828 14.05 16 14.05Z" fill="#110A1D"/>
    </g>
    <defs>
      <clipPath id="clip0_9224_177">
        <rect width="32" height="32" fill="white"/>
      </clipPath>
    </defs>
  </symbol>
  <symbol viewBox="0 0 32 32" id="icon-linkedin">
    <g clip-path="url(#clip0_9224_189)">
      <path fill-rule="evenodd" clip-rule="evenodd" d="M0 16C0 24.8202 7.17648 32 16 32C24.8202 32 32 24.8202 32 16C32 7.17982 24.8202 0 16 0C7.17984 0 0 7.17982 0 16ZM5.94191 4.96936C8.59784 2.54552 12.1292 1.06554 16 1.06554C19.8696 1.06554 23.4 2.54462 26.0557 4.96715L24.8681 6.1547C22.5199 4.03823 19.4105 2.75 16 2.75C12.5883 2.75 9.47794 4.03912 7.12944 6.15689L5.94191 4.96936ZM4.96751 5.94395C2.54476 8.59964 1.06554 12.1302 1.06554 16C1.06554 19.8694 2.54451 23.3997 4.96688 26.0553L6.15441 24.8678C4.03812 22.5196 2.75 19.4104 2.75 16C2.75 12.5893 4.03837 9.47974 6.15505 7.13149L4.96751 5.94395ZM5.94122 27.03C8.59723 29.4542 12.1289 30.9344 16 30.9344C19.8692 30.9344 23.3992 29.4557 26.0548 27.0337L24.8672 25.8461C22.5191 27.9621 19.4101 29.25 16 29.25C12.5879 29.25 9.47731 27.9606 7.12874 25.8425L5.94122 27.03ZM30.9345 16C30.9345 19.8714 29.454 23.4033 27.0295 26.0593L25.842 24.8718C27.9604 22.5232 29.25 19.4123 29.25 16C29.25 12.5881 27.9607 9.47761 25.8428 7.12907L27.0303 5.94154C29.4543 8.5975 30.9345 12.129 30.9345 16Z" fill="#478BF9"/>
      <path d="M9.875 10.7524C9.875 10.2678 10.2777 9.875 10.7746 9.875H21.2254C21.7223 9.875 22.125 10.2678 22.125 10.7524V21.2476C22.125 21.7322 21.7223 22.125 21.2254 22.125H10.7746C10.2777 22.125 9.875 21.7322 9.875 21.2476V10.7524ZM13.6595 20.1298V14.5981H11.8212V20.1298H13.6595ZM12.7407 13.8425C13.3816 13.8425 13.7805 13.4183 13.7805 12.887C13.769 12.3441 13.3823 11.9315 12.753 11.9315C12.1236 11.9315 11.7125 12.3449 11.7125 12.887C11.7125 13.4183 12.1114 13.8425 12.7285 13.8425H12.7407ZM16.4984 20.1298V17.0405C16.4984 16.8751 16.5107 16.7097 16.5597 16.5918C16.6921 16.2618 16.9945 15.9196 17.5029 15.9196C18.1683 15.9196 18.4339 16.4265 18.4339 17.1706V20.1298H20.2722V16.957C20.2722 15.2573 19.3657 14.4672 18.156 14.4672C17.1806 14.4672 16.7434 15.0032 16.4984 15.3806V15.3998H16.4862C16.4902 15.3934 16.4943 15.387 16.4984 15.3806V14.5981H14.6609C14.6839 15.1172 14.6609 20.1298 14.6609 20.1298H16.4984Z" fill="#110A1D"/>
    </g>
    <defs>
      <clipPath id="clip0_9224_189">
        <rect width="32" height="32" fill="white"/>
      </clipPath>
    </defs>
  </symbol>
  <symbol viewBox="0 0 32 32" id="icon-youtube">
    <g clip-path="url(#clip0_9224_201)">
      <path fill-rule="evenodd" clip-rule="evenodd" d="M0 16C0 24.8202 7.17648 32 16 32C24.8202 32 32 24.8202 32 16C32 7.17982 24.8202 0 16 0C7.17984 0 0 7.17982 0 16ZM5.94191 4.96936C8.59784 2.54552 12.1292 1.06554 16 1.06554C19.8696 1.06554 23.4 2.54462 26.0557 4.96715L24.8681 6.1547C22.5199 4.03823 19.4105 2.75 16 2.75C12.5883 2.75 9.47794 4.03912 7.12944 6.15689L5.94191 4.96936ZM4.96751 5.94395C2.54476 8.59964 1.06554 12.1302 1.06554 16C1.06554 19.8694 2.54451 23.3997 4.96688 26.0553L6.15441 24.8678C4.03812 22.5196 2.75 19.4104 2.75 16C2.75 12.5893 4.03837 9.47974 6.15505 7.13149L4.96751 5.94395ZM5.94122 27.03C8.59723 29.4542 12.1289 30.9344 16 30.9344C19.8692 30.9344 23.3992 29.4557 26.0548 27.0337L24.8672 25.8461C22.5191 27.9621 19.4101 29.25 16 29.25C12.5879 29.25 9.47731 27.9606 7.12874 25.8425L5.94122 27.03ZM30.9345 16C30.9345 19.8714 29.454 23.4033 27.0295 26.0593L25.842 24.8718C27.9604 22.5232 29.25 19.4123 29.25 16C29.25 12.5881 27.9607 9.47761 25.8428 7.12907L27.0303 5.94154C29.4543 8.5975 30.9345 12.129 30.9345 16Z" fill="#478BF9"/>
      <path fill-rule="evenodd" clip-rule="evenodd" d="M0 16C0 24.8202 7.17648 32 16 32C24.8202 32 32 24.8202 32 16C32 7.17982 24.8202 0 16 0C7.17984 0 0 7.17982 0 16ZM5.94191 4.96936C8.59784 2.54552 12.1292 1.06554 16 1.06554C19.8696 1.06554 23.4 2.54462 26.0557 4.96715L24.8681 6.1547C22.5199 4.03823 19.4105 2.75 16 2.75C12.5883 2.75 9.47794 4.03912 7.12944 6.15689L5.94191 4.96936ZM4.96751 5.94395C2.54476 8.59964 1.06554 12.1302 1.06554 16C1.06554 19.8694 2.54451 23.3997 4.96688 26.0553L6.15441 24.8678C4.03812 22.5196 2.75 19.4104 2.75 16C2.75 12.5893 4.03837 9.47974 6.15505 7.13149L4.96751 5.94395ZM5.94122 27.03C8.59723 29.4542 12.1289 30.9344 16 30.9344C19.8692 30.9344 23.3992 29.4557 26.0548 27.0337L24.8672 25.8461C22.5191 27.9621 19.4101 29.25 16 29.25C12.5879 29.25 9.47731 27.9606 7.12874 25.8425L5.94122 27.03ZM30.9345 16C30.9345 19.8714 29.454 23.4033 27.0295 26.0593L25.842 24.8718C27.9604 22.5232 29.25 19.4123 29.25 16C29.25 12.5881 27.9607 9.47761 25.8428 7.12907L27.0303 5.94154C29.4543 8.5975 30.9345 12.129 30.9345 16Z" fill="url(#paint0_linear_9224_201)"/>
      <path d="M14.6666 17.9999L18.1266 15.9999L14.6666 13.9999V17.9999ZM22.3733 12.7799C22.4599 13.0933 22.5199 13.5133 22.5599 14.0466C22.6066 14.5799 22.6266 15.0399 22.6266 15.4399L22.6666 15.9999C22.6666 17.4599 22.5599 18.5333 22.3733 19.2199C22.2066 19.8199 21.8199 20.2066 21.2199 20.3733C20.9066 20.4599 20.3333 20.5199 19.4533 20.5599C18.5866 20.6066 17.7933 20.6266 17.0599 20.6266L15.9999 20.6666C13.2066 20.6666 11.4666 20.5599 10.7799 20.3733C10.1799 20.2066 9.79325 19.8199 9.62659 19.2199C9.53992 18.9066 9.47992 18.4866 9.43992 17.9533C9.39325 17.4199 9.37325 16.9599 9.37325 16.5599L9.33325 15.9999C9.33325 14.5399 9.43992 13.4666 9.62659 12.7799C9.79325 12.1799 10.1799 11.7933 10.7799 11.6266C11.0933 11.5399 11.6666 11.4799 12.5466 11.4399C13.4133 11.3933 14.2066 11.3733 14.9399 11.3733L15.9999 11.3333C18.7933 11.3333 20.5333 11.4399 21.2199 11.6266C21.8199 11.7933 22.2066 12.1799 22.3733 12.7799Z" fill="#1E1231"/>
    </g>
    <defs>
    <linearGradient id="paint0_linear_9224_201" x1="32" y1="-1.90735e-06" x2="-5.64706" y2="9.41176" gradientUnits="userSpaceOnUse">
      <stop stop-color="#478BF9"/>
      <stop offset="1" stop-color="#9DADF2"/>
    </linearGradient>
      <clipPath id="clip0_9224_201">
        <rect width="32" height="32" fill="white"/>
      </clipPath>
    </defs>
  </symbol>
  <symbol viewBox="0 0 32 32" id="icon-tiktok">
    <g clip-path="url(#clip0_9224_213)">
      <path fill-rule="evenodd" clip-rule="evenodd" d="M0 16C0 24.8202 7.17648 32 16 32C24.8202 32 32 24.8202 32 16C32 7.17982 24.8202 0 16 0C7.17984 0 0 7.17982 0 16ZM5.94191 4.96936C8.59784 2.54552 12.1292 1.06554 16 1.06554C19.8696 1.06554 23.4 2.54462 26.0557 4.96715L24.8681 6.1547C22.5199 4.03823 19.4105 2.75 16 2.75C12.5883 2.75 9.47794 4.03912 7.12944 6.15689L5.94191 4.96936ZM4.96751 5.94395C2.54476 8.59964 1.06554 12.1302 1.06554 16C1.06554 19.8694 2.54451 23.3997 4.96688 26.0553L6.15441 24.8678C4.03812 22.5196 2.75 19.4104 2.75 16C2.75 12.5893 4.03837 9.47974 6.15505 7.13149L4.96751 5.94395ZM5.94122 27.03C8.59723 29.4542 12.1289 30.9344 16 30.9344C19.8692 30.9344 23.3992 29.4557 26.0548 27.0337L24.8672 25.8461C22.5191 27.9621 19.4101 29.25 16 29.25C12.5879 29.25 9.47731 27.9606 7.12874 25.8425L5.94122 27.03ZM30.9345 16C30.9345 19.8714 29.454 23.4033 27.0295 26.0593L25.842 24.8718C27.9604 22.5232 29.25 19.4123 29.25 16C29.25 12.5881 27.9607 9.47761 25.8428 7.12907L27.0303 5.94154C29.4543 8.5975 30.9345 12.129 30.9345 16Z" fill="#478BF9"/>
      <path fill-rule="evenodd" clip-rule="evenodd" d="M17.0125 9.9248C17.3853 9.9248 17.6875 10.227 17.6875 10.5998C17.6875 11.3159 17.972 12.0026 18.4783 12.509C18.9847 13.0153 19.6714 13.2998 20.3875 13.2998C20.7603 13.2998 21.0625 13.602 21.0625 13.9748C21.0625 14.3476 20.7603 14.6498 20.3875 14.6498C19.3887 14.6498 18.428 14.2809 17.6875 13.6185V18.6998C17.6875 19.3673 17.4896 20.0198 17.1187 20.5749C16.7479 21.1299 16.2208 21.5625 15.6041 21.8179C14.9874 22.0733 14.3088 22.1402 13.6541 22.01C12.9994 21.8797 12.398 21.5583 11.926 21.0863C11.454 20.6143 11.1326 20.0129 11.0024 19.3582C10.8721 18.7035 10.939 18.0249 11.1944 17.4082C11.4499 16.7915 11.8824 16.2644 12.4375 15.8936C12.9925 15.5227 13.645 15.3248 14.3125 15.3248C14.6853 15.3248 14.9875 15.627 14.9875 15.9998C14.9875 16.3726 14.6853 16.6748 14.3125 16.6748C13.912 16.6748 13.5205 16.7936 13.1875 17.0161C12.8545 17.2386 12.5949 17.5549 12.4416 17.9249C12.2884 18.2949 12.2483 18.7021 12.3264 19.0949C12.4045 19.4877 12.5974 19.8485 12.8806 20.1317C13.1638 20.4149 13.5246 20.6078 13.9174 20.6859C14.3103 20.764 14.7174 20.7239 15.0874 20.5707C15.4575 20.4174 15.7737 20.1578 15.9962 19.8248C16.2187 19.4918 16.3375 19.1003 16.3375 18.6998V10.5998C16.3375 10.227 16.6397 9.9248 17.0125 9.9248Z" fill="#110A1D"/>
    </g>
    <defs>
      <clipPath id="clip0_9224_213">
        <rect width="32" height="32" fill="white"/>
      </clipPath>
    </defs>
  </symbol>
  <symbol viewBox="0 0 32 32" id="icon-telegram">
    <g clip-path="url(#clip0_9224_226)">
      <path fill-rule="evenodd" clip-rule="evenodd" d="M0 16C0 24.8202 7.17648 32 16 32C24.8202 32 32 24.8202 32 16C32 7.17982 24.8202 0 16 0C7.17984 0 0 7.17982 0 16ZM5.94191 4.96936C8.59784 2.54552 12.1292 1.06554 16 1.06554C19.8696 1.06554 23.4 2.54462 26.0557 4.96715L24.8681 6.1547C22.5199 4.03823 19.4105 2.75 16 2.75C12.5883 2.75 9.47794 4.03912 7.12944 6.15689L5.94191 4.96936ZM4.96751 5.94395C2.54476 8.59964 1.06554 12.1302 1.06554 16C1.06554 19.8694 2.54451 23.3997 4.96688 26.0553L6.15441 24.8678C4.03812 22.5196 2.75 19.4104 2.75 16C2.75 12.5893 4.03837 9.47974 6.15505 7.13149L4.96751 5.94395ZM5.94122 27.03C8.59723 29.4542 12.1289 30.9344 16 30.9344C19.8692 30.9344 23.3992 29.4557 26.0548 27.0337L24.8672 25.8461C22.5191 27.9621 19.4101 29.25 16 29.25C12.5879 29.25 9.47731 27.9606 7.12874 25.8425L5.94122 27.03ZM30.9345 16C30.9345 19.8714 29.454 23.4033 27.0295 26.0593L25.842 24.8718C27.9604 22.5232 29.25 19.4123 29.25 16C29.25 12.5881 27.9607 9.47761 25.8428 7.12907L27.0303 5.94154C29.4543 8.5975 30.9345 12.129 30.9345 16Z" fill="#478BF9"/>
      <path d="M20.6437 11.1321C20.6437 11.1321 21.7768 10.6902 21.682 11.7633C21.6508 12.2052 21.3676 13.7519 21.1471 15.4246L20.3917 20.38C20.3917 20.38 20.3287 21.106 19.762 21.2322C19.1956 21.3582 18.3457 20.7904 18.1882 20.6641C18.0622 20.5693 15.8274 19.1489 15.0405 18.4547C14.82 18.2651 14.568 17.8865 15.072 17.4447L18.3769 14.2882C18.7546 13.9097 19.1323 13.0259 17.5585 14.099L13.1514 17.0973C13.1514 17.0973 12.6477 17.4132 11.7035 17.1291L9.65721 16.4976C9.65721 16.4976 8.90179 16.0242 10.1924 15.5509C13.3404 14.0675 17.2123 12.5525 20.6431 11.1321H20.6437Z" fill="#110A1D"/>
    </g>
    <defs>
      <clipPath id="clip0_9224_226">
        <rect width="32" height="32" fill="white"/>
      </clipPath>
    </defs>
  </symbol>
  <symbol viewBox="0 0 32 32" id="icon-vk">
    <g clip-path="url(#clip0_9224_238)">
      <path fill-rule="evenodd" clip-rule="evenodd" d="M0 16C0 24.8202 7.17648 32 16 32C24.8202 32 32 24.8202 32 16C32 7.17982 24.8202 0 16 0C7.17984 0 0 7.17982 0 16ZM5.94191 4.96936C8.59784 2.54552 12.1292 1.06554 16 1.06554C19.8696 1.06554 23.4 2.54462 26.0557 4.96715L24.8681 6.1547C22.5199 4.03823 19.4105 2.75 16 2.75C12.5883 2.75 9.47794 4.03912 7.12944 6.15689L5.94191 4.96936ZM4.96751 5.94395C2.54476 8.59964 1.06554 12.1302 1.06554 16C1.06554 19.8694 2.54451 23.3997 4.96688 26.0553L6.15441 24.8678C4.03812 22.5196 2.75 19.4104 2.75 16C2.75 12.5893 4.03837 9.47974 6.15505 7.13149L4.96751 5.94395ZM5.94122 27.03C8.59723 29.4542 12.1289 30.9344 16 30.9344C19.8692 30.9344 23.3992 29.4557 26.0548 27.0337L24.8672 25.8461C22.5191 27.9621 19.4101 29.25 16 29.25C12.5879 29.25 9.47731 27.9606 7.12874 25.8425L5.94122 27.03ZM30.9345 16C30.9345 19.8714 29.454 23.4033 27.0295 26.0593L25.842 24.8718C27.9604 22.5232 29.25 19.4123 29.25 16C29.25 12.5881 27.9607 9.47761 25.8428 7.12907L27.0303 5.94154C29.4543 8.5975 30.9345 12.129 30.9345 16Z" fill="#478BF9"/>
      <path fill-rule="evenodd" clip-rule="evenodd" d="M9.31137 12.5404C9.37193 12.4521 9.46882 12.3999 9.57195 12.3999H11.7838C11.9078 12.3999 12.0208 12.4752 12.0742 12.5934C12.2088 12.8909 12.3395 13.1919 12.4688 13.4896C12.7691 14.1808 13.0619 14.8546 13.3769 15.4277C13.6001 15.8338 13.8229 16.1663 14.05 16.4024C14.1461 16.5023 14.2394 16.5812 14.3304 16.6409V13.8202L13.6679 12.9541C13.5899 12.8522 13.5743 12.7119 13.6278 12.5936C13.6812 12.4752 13.7942 12.3999 13.9183 12.3999H16.9929C17.1707 12.3999 17.3149 12.5523 17.3149 12.7402V15.9274C17.6826 15.544 17.9704 15.107 18.2332 14.6386C18.3845 14.3689 18.5247 14.0941 18.6684 13.8123C18.7032 13.7442 18.7381 13.6757 18.7735 13.6068C18.9534 13.2562 19.142 12.8984 19.3578 12.5528C19.4173 12.4573 19.5183 12.3999 19.6265 12.3999H21.7449C21.8448 12.3999 21.9391 12.4489 22 12.5326C22.061 12.6162 22.0817 12.725 22.0562 12.8271C21.6506 14.45 20.8611 15.5835 20.1084 16.6643C20.0786 16.707 20.049 16.7497 20.0194 16.7922C21.0413 17.7588 21.8603 18.9427 22.4219 20.2677C22.4665 20.373 22.4576 20.495 22.3983 20.5919C22.3389 20.6887 22.2372 20.7471 22.128 20.7471H19.7971C19.7199 20.7471 19.6453 20.7178 19.5868 20.6645C19.3405 20.4399 19.1286 20.1942 18.9333 19.9593C18.8933 19.9112 18.8543 19.8638 18.8158 19.8172C18.6622 19.631 18.5179 19.4561 18.3626 19.2915C18.065 18.976 17.7451 18.7185 17.3149 18.5742V20.4069C17.3149 20.5782 17.1943 20.7229 17.0335 20.7444C14.4193 21.095 12.6612 19.7367 11.477 17.9973C10.3388 16.3256 9.70433 14.2678 9.30257 12.9647C9.29012 12.9243 9.2779 12.8847 9.26589 12.8458C9.23389 12.7421 9.2508 12.6286 9.31137 12.5404ZM10.0159 13.0805C10.4201 14.3779 11.013 16.1508 11.9996 17.5998C13.0489 19.1409 14.517 20.2816 16.671 20.1001V18.1473C16.671 18.0481 16.7119 17.9539 16.7831 17.8892C16.8543 17.8246 16.9487 17.796 17.0415 17.811C17.8494 17.9411 18.3812 18.3473 18.8186 18.811C18.9906 18.9934 19.1527 19.1899 19.3075 19.3776C19.3444 19.4224 19.3809 19.4666 19.417 19.51C19.5818 19.7082 19.7436 19.8957 19.9196 20.0666H21.6159C21.0631 18.9341 20.3028 17.9269 19.3774 17.1045C19.2481 16.9896 19.2249 16.7886 19.3241 16.6441C19.4125 16.5155 19.5007 16.3886 19.5885 16.2624C20.2699 15.2822 20.9196 14.3477 21.314 13.0805H19.8021C19.6395 13.3538 19.4898 13.6382 19.3396 13.9312C19.3058 13.997 19.2719 14.0634 19.2379 14.1302C19.0936 14.4129 18.9457 14.7029 18.7871 14.9857C18.3922 15.6896 17.914 16.3813 17.1797 16.9341C17.0815 17.008 16.9525 17.0177 16.8454 16.9594C16.7383 16.901 16.671 16.7843 16.671 16.6569V13.0805H14.5926L14.9027 13.4859C14.949 13.5464 14.9743 13.6219 14.9743 13.6998V17.1197C14.9743 17.2168 14.9351 17.3092 14.8665 17.3738C14.7979 17.4384 14.7064 17.4689 14.6152 17.4577C14.2215 17.4093 13.885 17.1854 13.5985 16.8876C13.3125 16.5903 13.0561 16.1988 12.8201 15.7695C12.4889 15.1669 12.1747 14.4439 11.8684 13.739C11.7716 13.5162 11.6756 13.2953 11.58 13.0805H10.0159Z" fill="#110A1D"/>
      <path d="M11.9996 17.5998C11.013 16.1508 10.4201 14.3779 10.0159 13.0805H11.58C11.6756 13.2953 11.7716 13.5162 11.8684 13.739C12.1747 14.4439 12.4889 15.1669 12.8201 15.7695C13.0561 16.1988 13.3125 16.5903 13.5985 16.8876C13.885 17.1854 14.2215 17.4093 14.6152 17.4577C14.7064 17.4689 14.7979 17.4384 14.8665 17.3738C14.9351 17.3092 14.9743 17.2168 14.9743 17.1197V13.6998C14.9743 13.6219 14.949 13.5464 14.9027 13.4859L14.5926 13.0805H16.671V16.6569C16.671 16.7843 16.7383 16.901 16.8454 16.9594C16.9525 17.0177 17.0815 17.008 17.1797 16.9341C17.914 16.3813 18.3922 15.6896 18.7871 14.9857C18.9457 14.7029 19.0936 14.4129 19.2379 14.1302C19.2719 14.0634 19.3058 13.997 19.3396 13.9312C19.4898 13.6382 19.6395 13.3538 19.8021 13.0805H21.314C20.9196 14.3477 20.2699 15.2822 19.5885 16.2624C19.5007 16.3886 19.4125 16.5155 19.3241 16.6441C19.2249 16.7886 19.2481 16.9896 19.3774 17.1045C20.3028 17.9269 21.0631 18.9341 21.6159 20.0666H19.9196C19.7436 19.8957 19.5818 19.7082 19.417 19.51C19.3809 19.4666 19.3444 19.4224 19.3075 19.3776C19.1527 19.1899 18.9906 18.9934 18.8186 18.811C18.3812 18.3473 17.8494 17.9411 17.0415 17.811C16.9487 17.796 16.8543 17.8246 16.7831 17.8892C16.7119 17.9539 16.671 18.0481 16.671 18.1473V20.1001C14.517 20.2816 13.0489 19.1409 11.9996 17.5998Z" fill="#110A1D"/>
    </g>
    <defs>
      <clipPath id="clip0_9224_238">
        <rect width="32" height="32" fill="white"/>
      </clipPath>
    </defs>
  </symbol>
  <symbol viewBox="0 0 100 100" id="slider-shield">
    <path d="M49.7325 100C37.0339 100 24.3458 95.1705 14.6762 85.5009C-4.65264 66.1721 -4.65264 34.7276 14.6762 15.3987C24.044 6.03095 36.4927 0.878662 49.7325 0.878662C62.9722 0.878662 75.421 6.03095 84.7888 15.3987C104.118 34.7276 104.118 66.1721 84.7888 85.5009C75.1296 95.1601 62.431 100 49.7325 100ZM17.2784 82.8988C35.1708 100.791 64.2838 100.791 82.1762 82.8988C100.069 65.0063 100.069 35.8933 82.1762 18.0009C73.5058 9.33049 61.9835 4.56336 49.7221 4.56336C37.4607 4.56336 25.9383 9.3409 17.2679 18.0009C-0.624513 35.8933 -0.624513 65.0063 17.2679 82.8988H17.2784Z"/>
    <path d="M49.0769 68.9929C49.2538 69.4196 49.6701 69.6693 50.1073 69.6693C50.253 69.6693 50.3987 69.6382 50.5445 69.5861C54.0418 68.1185 57.2268 65.8493 59.7457 63.0182C60.1517 62.5602 60.11 61.8525 59.652 61.4466C59.194 61.0407 58.4862 61.0823 58.0803 61.5403C55.78 64.132 52.876 66.2033 49.6805 67.5356C49.1185 67.775 48.8478 68.4308 49.0872 68.9929H49.0769Z"/>
    <path d="M68.6225 33.312L50.1368 25.9218C49.8661 25.8177 49.5747 25.8177 49.3041 25.9218L30.8183 33.312C30.3916 33.4785 30.121 33.8844 30.121 34.3424V47.5822C30.1418 59.8019 37.865 70.8455 49.3353 75.0506C49.4602 75.0922 49.5851 75.1131 49.7204 75.1131C49.8558 75.1131 49.9807 75.0922 50.1056 75.0506C61.5759 70.8351 69.299 59.8019 69.3199 47.5822V34.3424C69.3199 33.8844 69.0493 33.4785 68.6225 33.312ZM67.0925 47.5822C67.0716 58.6986 60.0978 68.8262 49.7308 72.8127C39.3638 68.8262 32.3796 58.6986 32.3588 47.5822V35.1022L49.7308 28.1597L67.0925 35.1022V47.5822Z"/>
    <path d="M42.0083 35.0502C41.7376 34.9357 41.4358 34.9357 41.1548 35.0502L36.7519 36.8094C36.3252 36.9759 36.0546 37.3818 36.0546 37.8398V42.5341C36.0546 43.1482 36.5542 43.6478 37.1683 43.6478C37.7824 43.6478 38.282 43.1482 38.282 42.5341V38.5996L41.9771 37.1217C42.2581 37.0072 42.4663 36.7989 42.5912 36.5179C42.7056 36.2473 42.7056 35.9455 42.5912 35.6644C42.4767 35.3834 42.2685 35.1751 41.9979 35.0502H42.0083Z"/>
    <path d="M77.8876 22.2998C70.3726 14.7743 60.3698 10.6421 49.7322 10.6421C39.0946 10.6421 29.1023 14.7847 21.5768 22.2998C6.05756 37.819 6.05756 63.0808 21.5768 78.6105C29.3417 86.3754 39.5317 90.2473 49.7322 90.2473C59.9326 90.2473 70.1227 86.365 77.8876 78.6105C93.4069 63.0913 93.4069 37.8295 77.8876 22.2998ZM72.3814 47.5823C72.4126 61.7068 63.3883 74.0619 49.9299 78.3399C49.805 78.3815 49.6697 78.3815 49.5344 78.3399C36.076 74.0619 27.0518 61.7068 27.083 47.5823V31.959C27.083 31.6987 27.2391 31.4594 27.4889 31.3553L49.4928 22.56C49.5657 22.5288 49.6489 22.5184 49.7322 22.5184C49.8154 22.5184 49.8988 22.5288 49.9716 22.56L71.9755 31.3657C72.2253 31.4594 72.3814 31.6987 72.3814 31.9694V47.5927V47.5823Z"/>
  </symbol>
  <symbol viewBox="0 0 100 221" id="slider-dollar">
    <path d="M99.1109 171.285C99.1109 198.608 76.878 220.841 49.5554 220.841C22.2327 220.841 -0.00012207 198.608 -0.00012207 171.285C-0.00012207 143.963 22.2327 121.73 49.5554 121.73C76.878 121.73 99.1109 143.963 99.1109 171.285ZM3.57003 171.285C3.57003 196.641 24.1999 217.271 49.5554 217.271C74.9108 217.271 95.5407 196.641 95.5407 171.285C95.5407 145.93 74.9108 125.3 49.5554 125.3C24.1999 125.3 3.57003 145.93 3.57003 171.285Z"/>
    <path d="M99.1135 50.1495C99.1135 51.1383 98.312 51.9294 97.3336 51.9294C96.3552 51.9294 95.5537 51.1279 95.5537 50.1495C95.5537 24.7941 74.9238 4.16415 49.5684 4.16415C24.213 4.16415 3.58305 24.7941 3.58305 50.1495C3.58305 51.1383 2.78156 51.9294 1.80315 51.9294C0.82474 51.9294 0.0233154 51.1279 0.0233154 50.1495C0.0233154 22.8268 22.2561 0.593994 49.5788 0.593994C76.9015 0.593994 99.1343 22.8268 99.1343 50.1495H99.1135Z"/>
    <path d="M40.0118 162.532C40.0118 164.353 41.2505 165.935 43.02 166.372L46.3819 167.215V158.566H43.9879C41.8021 158.566 40.0223 160.346 40.0223 162.532H40.0118Z"/>
    <path d="M52.7292 184.005H55.1233C57.3091 184.005 59.089 182.225 59.089 180.039C59.089 178.217 57.8503 176.635 56.0808 176.198L52.7189 175.355V184.005H52.7292Z"/>
    <path d="M49.5562 130.962C27.3234 130.962 9.22278 149.052 9.22278 171.296C9.22278 193.539 27.313 211.629 49.5562 211.629C71.7995 211.629 89.8897 193.539 89.8897 171.296C89.8897 149.052 71.7995 130.962 49.5562 130.962ZM65.4607 164.926H59.1009V161.74C59.1009 159.992 57.675 158.555 55.9159 158.555H52.7309V168.798L57.6334 170.026C62.234 171.181 65.4502 175.293 65.4502 180.039C65.4502 185.732 60.8184 190.364 55.1249 190.364H52.7309V198.421H46.3712V190.364H43.1862C37.9194 190.364 33.6415 186.086 33.6415 180.82V177.635H40.0011V180.82C40.0011 182.568 41.4271 184.005 43.1862 184.005H46.3712V173.762L41.4687 172.534C36.8681 171.379 33.6519 167.267 33.6519 162.521C33.6519 156.828 38.2837 152.196 43.9772 152.196H46.3712V144.14H52.7309V152.196H55.9159C61.1827 152.196 65.4607 156.474 65.4607 161.74V164.926Z"/>
    <path d="M99.1729 49.3897V168.985C99.1729 169.974 98.3715 170.765 97.3931 170.765C96.4146 170.765 95.6132 169.963 95.6132 168.985V49.3897C95.6132 48.4009 96.4146 47.6099 97.3931 47.6099C98.3715 47.6099 99.1729 48.4113 99.1729 49.3897Z"/>
    <path d="M3.63774 49.1294V168.725C3.63774 169.714 2.83625 170.505 1.85784 170.505C0.879427 170.505 0.0780029 169.703 0.0780029 168.725V49.1294C0.0780029 48.1406 0.879427 47.3496 1.85784 47.3496C2.83625 47.3496 3.63774 48.151 3.63774 49.1294Z"/>
  </symbol>
  <symbol viewBox="0 0 100 223" id="slider-crown-with-frame">
    <path d="M14.617 208.26C-4.87267 188.77 -4.87267 157.061 14.617 137.572C34.1068 118.082 65.8155 118.082 85.3052 137.572C104.795 157.061 104.795 188.77 85.3052 208.26C65.8155 227.75 34.1068 227.75 14.617 208.26ZM82.9496 139.927C64.7585 121.736 35.1637 121.736 16.9774 139.927C-1.21362 158.118 -1.21362 187.713 16.9774 205.899C35.1685 224.09 64.7633 224.09 82.9496 205.899C101.141 187.708 101.141 158.114 82.9496 139.927Z"/>
    <path d="M83.4927 162.313C83.3173 162.138 83.1752 161.915 83.0946 161.668C81.3646 156.55 78.5397 152.014 74.7005 148.174C70.8661 144.34 66.3254 141.515 61.2065 139.78C60.5288 139.548 60.0737 138.918 60.0737 138.202V126.054C60.0737 125.542 60.3107 125.059 60.7136 124.741C61.1212 124.424 61.6473 124.315 62.1402 124.438C70.8898 126.628 78.8999 131.168 85.2985 137.572C91.6971 143.975 96.2378 151.98 98.4276 160.73C98.5508 161.228 98.437 161.754 98.1242 162.161C97.8066 162.569 97.3232 162.801 96.8113 162.801H84.6634C84.2084 162.801 83.7913 162.616 83.4832 162.308L83.4927 162.313ZM77.0561 145.819C80.9711 149.734 83.924 154.322 85.8483 159.469H94.6358C92.4271 152.113 88.4125 145.392 82.9476 139.927C77.4827 134.462 70.7618 130.448 63.4105 128.244V137.031C68.5578 138.951 73.1459 141.904 77.0609 145.824L77.0561 145.819Z"/>
    <path d="M14.6156 208.26C8.217 201.861 3.6716 193.851 1.48185 185.101C1.35862 184.604 1.47238 184.078 1.7852 183.675C2.10276 183.267 2.58619 183.035 3.09808 183.035H15.246C15.9617 183.035 16.5968 183.49 16.8243 184.168C18.5543 189.287 21.3792 193.823 25.2183 197.662C29.0528 201.496 33.5935 204.321 38.7124 206.056C39.3902 206.283 39.8451 206.918 39.8451 207.634V219.782C39.8451 220.294 39.6081 220.777 39.2053 221.095C38.7976 221.412 38.2715 221.521 37.7739 221.398C29.0243 219.208 21.019 214.668 14.6156 208.269V208.26ZM5.28312 186.362C7.49183 193.718 11.5064 200.439 16.9713 205.904C22.4361 211.369 29.1571 215.384 36.5131 217.592V208.805C31.3658 206.885 26.7777 203.932 22.8627 200.017C18.9477 196.102 15.9949 191.514 14.0705 186.367H5.28312V186.362Z"/>
    <path d="M60.5619 220.953C60.2491 220.64 60.0737 220.218 60.0737 219.773V207.625C60.0737 206.909 60.5288 206.274 61.2065 206.046C66.3254 204.316 70.8613 201.492 74.7005 197.652C78.5397 193.813 81.3598 189.277 83.0945 184.158C83.322 183.481 83.9572 183.026 84.6729 183.026H96.8208C97.3327 183.026 97.8161 183.263 98.1337 183.665C98.4513 184.068 98.5603 184.599 98.437 185.092C96.2425 193.842 91.7019 201.847 85.3032 208.25C78.9046 214.654 70.8945 219.194 62.145 221.384C61.6473 221.507 61.1212 221.394 60.7183 221.081C60.6662 221.033 60.6141 220.991 60.5667 220.943L60.5619 220.953ZM63.4058 208.8V217.588C70.7618 215.379 77.4827 211.364 82.9476 205.9C88.4125 200.435 92.4223 193.714 94.6358 186.358H85.8483C83.9287 191.505 80.9759 196.088 77.0561 200.008C73.1411 203.923 68.5531 206.881 63.4058 208.8Z"/>
    <path d="M1.91864 162.313C1.87125 162.266 1.82386 162.213 1.78595 162.161C1.46839 161.758 1.35936 161.228 1.4826 160.73C3.67235 151.98 8.21301 143.97 14.6164 137.572C21.0197 131.173 29.0251 126.628 37.7746 124.438C38.2723 124.315 38.7984 124.428 39.2013 124.741C39.6041 125.059 39.8412 125.542 39.8412 126.054V138.202C39.8412 138.918 39.3862 139.553 38.7084 139.78C33.5895 141.51 29.0535 144.335 25.2143 148.174C21.3799 152.009 18.5551 156.549 16.8203 161.668C16.5928 162.346 15.9577 162.801 15.242 162.801H3.09411C2.64858 162.801 2.22198 162.626 1.9139 162.318L1.91864 162.313ZM36.5091 128.244C29.1531 130.453 22.4321 134.467 16.9673 139.932C11.5024 145.397 7.49257 152.118 5.27912 159.474H14.0665C15.9861 154.327 18.939 149.743 22.8587 145.824C26.7737 141.909 31.3618 138.956 36.5091 137.031V128.244Z"/>
    <path d="M77.0603 145.819C62.1207 130.879 37.806 130.874 22.8664 145.819C7.92205 160.763 7.92679 185.073 22.8664 200.013C37.806 214.952 62.116 214.957 77.0603 200.013C92.0046 185.068 91.9999 160.758 77.0603 145.819Z"/>
    <path d="M63.7792 186.593L36.2515 186.776C35.0919 186.784 34.1581 187.73 34.1658 188.889L34.1723 189.871C34.18 191.03 35.1263 191.964 36.2859 191.956L63.8135 191.774C64.9732 191.766 65.907 190.82 65.8993 189.66L65.8928 188.679C65.8851 187.519 64.9388 186.586 63.7792 186.593Z" fill="#110A1D"/>
    <path d="M40.0021 169.977C39.7035 169.977 39.4002 169.911 39.1253 169.778L36.9781 168.74C36.0444 168.285 35.6178 167.181 36.0065 166.219L36.9924 163.764C37.2957 163.015 38.0114 162.526 38.8172 162.522C39.1632 162.522 39.5044 162.607 39.8077 162.782L42.3672 164.242C42.8459 164.512 43.1919 164.982 43.3152 165.522C43.4384 166.062 43.3294 166.631 43.0165 167.086L41.6136 169.119C41.2487 169.65 40.642 169.973 39.9973 169.973L40.0021 169.977Z" fill="#110A1D"/>
    <path d="M59.8208 169.845C59.1762 169.845 58.5649 169.537 58.1952 169.01L56.8064 167.053C56.4841 166.603 56.3704 166.034 56.4841 165.494C56.5979 164.953 56.9391 164.479 57.4178 164.2L60.0578 162.65C60.3564 162.474 60.6977 162.38 61.0437 162.375C61.8495 162.37 62.5747 162.849 62.8875 163.593L63.8828 165.977C64.281 166.934 63.8686 168.048 62.9444 168.513L60.6977 169.636C60.4276 169.769 60.1242 169.845 59.8256 169.845H59.8208Z" fill="#110A1D"/>
    <path d="M37.8395 184.936C36.6309 184.945 35.5455 184.187 35.1332 183.049L30.5404 170.408C30.2465 170.551 29.9337 170.66 29.6161 170.74C29.2417 170.835 28.8625 170.882 28.4786 170.882C28.2558 170.882 28.0378 170.873 27.8245 170.845C25.4309 170.541 23.6157 168.489 23.6014 166.072C23.5825 163.398 25.7438 161.209 28.417 161.19C31.0902 161.171 33.2799 163.332 33.2941 166.005C33.2941 166.621 33.1898 167.214 32.9718 167.768C32.8533 168.072 32.7064 168.361 32.5358 168.636L41.2711 172.864L47.9541 163.18C47.6745 163.062 47.4043 162.915 47.1483 162.74C46.6649 162.413 46.243 162.005 45.9018 161.526C45.3235 160.711 45.0107 159.749 45.006 158.753C44.987 156.08 47.1483 153.891 49.8215 153.872C49.94 153.872 50.0633 153.872 50.1818 153.881C52.5753 154.042 54.5091 155.962 54.6845 158.355C54.7651 159.488 54.4665 160.574 53.8219 161.498C53.4806 161.981 53.0635 162.394 52.5848 162.721C52.3336 162.896 52.0634 163.043 51.7838 163.161L58.5853 172.745L67.1784 168.446C67.0172 168.138 66.8893 167.816 66.7945 167.479C66.6808 167.072 66.6191 166.645 66.6191 166.214C66.6191 166.019 66.6286 165.825 66.6475 165.636C66.9224 163.199 68.9795 161.351 71.4299 161.337C74.1031 161.318 76.2929 163.479 76.3071 166.152C76.3261 168.702 74.3448 170.845 71.7996 171.02L71.4963 171.029C71.0033 171.029 70.5199 170.963 70.0507 170.821C69.7473 170.726 69.4534 170.608 69.1785 170.456L64.8654 182.85C64.472 183.992 63.3913 184.76 62.1827 184.77L37.8395 184.931V184.936Z" fill="#110A1D"/>
    <path d="M99.5402 52.0401V171.635C99.5402 172.624 98.7387 173.415 97.7603 173.415C96.7819 173.415 95.9805 172.614 95.9805 171.635V52.0401C95.9805 51.0513 96.7819 50.2603 97.7603 50.2603C98.7387 50.2603 99.5402 51.0617 99.5402 52.0401Z"/>
    <path d="M99.0902 49.5555C99.0902 50.5443 98.2887 51.3354 97.3103 51.3354C96.3319 51.3354 95.5304 50.5339 95.5304 49.5555C95.5304 24.2001 74.9005 3.57015 49.5451 3.57015C24.1896 3.57015 3.55974 24.2001 3.55974 49.5555C3.55974 50.5443 2.75825 51.3354 1.77984 51.3354C0.801424 51.3354 0 50.5339 0 49.5555C0 22.2328 22.2328 0 49.5555 0C76.8782 0 99.111 22.2328 99.111 49.5555H99.0902Z"/>
    <path d="M3.99724 51.7799V171.375C3.99724 172.364 3.19581 173.155 2.2174 173.155C1.23899 173.155 0.4375 172.354 0.4375 171.375V51.7799C0.4375 50.791 1.23899 50 2.2174 50C3.19581 50 3.99724 50.8015 3.99724 51.7799Z"/>
  </symbol>
  <symbol viewBox="0 0 101 101" id="slider-crown">
    <path d="M14.8281 85.4517C-4.66161 65.962 -4.66161 34.2533 14.8281 14.7635C34.3178 -4.72619 66.0265 -4.72619 85.5163 14.7635C105.006 34.2533 105.006 65.962 85.5163 85.4517C66.0265 104.941 34.3178 104.941 14.8281 85.4517ZM83.1606 17.1192C64.9696 -1.07187 35.3748 -1.07187 17.1885 17.1192C-1.00256 35.3102 -1.00256 64.905 17.1885 83.0913C35.3795 101.282 64.9743 101.282 83.1606 83.0913C101.352 64.9003 101.352 35.3055 83.1606 17.1192Z"/>
    <path d="M83.7002 39.5049C83.5248 39.3295 83.3827 39.1068 83.3021 38.8603C81.5721 33.7414 78.7472 29.2055 74.908 25.3663C71.0736 21.5319 66.5329 18.707 61.414 16.9723C60.7363 16.74 60.2812 16.1097 60.2812 15.394V3.24606C60.2812 2.73417 60.5182 2.25071 60.9211 1.93315C61.3287 1.61559 61.8548 1.50658 62.3478 1.62982C71.0973 3.81957 79.1074 8.36021 85.506 14.7636C91.9046 21.1669 96.4453 29.1723 98.6351 37.9218C98.7583 38.4195 98.6446 38.9456 98.3317 39.3532C98.0142 39.7608 97.5307 39.9931 97.0188 39.9931H84.8709C84.4159 39.9931 83.9988 39.8082 83.6907 39.5002L83.7002 39.5049ZM77.2636 23.0107C81.1786 26.9257 84.1315 31.5137 86.0558 36.6611H94.8433C92.6346 29.305 88.62 22.5841 83.1551 17.1192C77.6902 11.6543 70.9693 7.63978 63.618 5.43581V14.2233C68.7654 16.1428 73.3534 19.0957 77.2684 23.0154L77.2636 23.0107Z"/>
    <path d="M14.8269 85.4516C8.42831 79.053 3.88291 71.0429 1.69316 62.2933C1.56992 61.7957 1.68368 61.2696 1.99651 60.8667C2.31407 60.4591 2.7975 60.2268 3.30939 60.2268H15.4573C16.173 60.2268 16.8081 60.6818 17.0356 61.3596C18.7656 66.4785 21.5905 71.0144 25.4296 74.8536C29.2641 78.688 33.8048 81.5129 38.9237 83.2476C39.6015 83.4751 40.0564 84.1103 40.0564 84.826V96.9739C40.0564 97.4857 39.8194 97.9692 39.4166 98.2868C39.0089 98.6043 38.4828 98.7133 37.9852 98.5901C29.2356 96.4003 21.2303 91.8597 14.8269 85.4611V85.4516ZM5.49442 63.5541C7.70313 70.9101 11.7177 77.6311 17.1826 83.0959C22.6475 88.5608 29.3684 92.5754 36.7244 94.7841V85.9967C31.5771 84.0771 26.989 81.1242 23.074 77.2092C19.159 73.2942 16.2062 68.7062 14.2818 63.5588H5.49442V63.5541Z"/>
    <path d="M60.7773 98.1447C60.4644 97.8319 60.2891 97.4101 60.2891 96.9646V84.8167C60.2891 84.101 60.7441 83.4659 61.4219 83.2383C66.5408 81.5083 71.0767 78.6835 74.9158 74.8443C78.755 71.0051 81.5751 66.4692 83.3098 61.3503C83.5374 60.6725 84.1725 60.2175 84.8882 60.2175H97.0361C97.548 60.2175 98.0315 60.4545 98.349 60.8574C98.6666 61.2603 98.7756 61.7911 98.6524 62.284C96.4579 71.0336 91.9172 79.0389 85.5186 85.4423C79.12 91.8457 71.1098 96.3863 62.3603 98.5761C61.8626 98.6993 61.3365 98.5855 60.9337 98.2727C60.8815 98.2253 60.8294 98.1827 60.782 98.1353L60.7773 98.1447ZM63.6211 85.9921V94.7795C70.9771 92.5708 77.6981 88.5563 83.1629 83.0914C88.6278 77.6265 92.6377 70.9056 94.8511 63.5495H86.0637C84.1441 68.6969 81.1912 73.2802 77.2715 77.1999C73.3564 81.1149 68.7684 84.0725 63.6211 85.9921Z"/>
    <path d="M2.12995 39.5049C2.08255 39.4575 2.03517 39.4054 1.99725 39.3532C1.67969 38.9503 1.57067 38.4195 1.6939 37.9218C3.88365 29.1723 8.42431 21.1622 14.8277 14.7636C21.231 8.36494 29.2364 3.81955 37.9859 1.6298C38.4836 1.50657 39.0097 1.62032 39.4126 1.93314C39.8154 2.2507 40.0525 2.73416 40.0525 3.24605V15.394C40.0525 16.1096 39.5975 16.7448 38.9197 16.9723C33.8008 18.7023 29.2648 21.5271 25.4256 25.3663C21.5912 29.2007 18.7664 33.7414 17.0316 38.8603C16.8041 39.5381 16.169 39.9931 15.4533 39.9931H3.30542C2.85988 39.9931 2.43328 39.8177 2.1252 39.5096L2.12995 39.5049ZM36.7204 5.4358C29.3644 7.64451 22.6434 11.6591 17.1786 17.1239C11.7137 22.5888 7.70387 29.3098 5.49042 36.6658H14.2778C16.1974 31.5185 19.1503 26.9352 23.07 23.0154C26.985 19.1004 31.5731 16.1476 36.7204 14.2232V5.4358Z"/>
    <path d="M77.2676 23.0107C62.328 8.07108 38.0133 8.06634 23.0737 23.0107C8.12933 37.955 8.13407 62.265 23.0737 77.2046C38.0133 92.1442 62.3232 92.1489 77.2676 77.2046C92.2119 62.2603 92.2072 37.9503 77.2676 23.0107Z"/>
    <path d="M63.9943 63.7852L36.4666 63.9678C35.307 63.9755 34.3732 64.9217 34.3809 66.0813L34.3874 67.0624C34.3951 68.222 35.3414 69.1558 36.501 69.1482L64.0286 68.9656C65.1882 68.9579 66.1221 68.0116 66.1144 66.852L66.1079 65.8709C66.1002 64.7113 65.1539 63.7775 63.9943 63.7852Z" fill="#110A1D"/>
    <path d="M40.2172 47.1689C39.9186 47.1689 39.6152 47.1026 39.3403 46.9699L37.1932 45.9319C36.2595 45.4769 35.8329 44.3725 36.2216 43.4104L37.2075 40.9552C37.5108 40.2063 38.2265 39.7181 39.0323 39.7134C39.3783 39.7134 39.7195 39.7987 40.0228 39.9741L42.5823 41.4339C43.061 41.7041 43.407 42.1733 43.5302 42.7136C43.6535 43.2539 43.5445 43.8227 43.2316 44.2777L41.8287 46.3111C41.4637 46.8419 40.857 47.1642 40.2124 47.1642L40.2172 47.1689Z" fill="#110A1D"/>
    <path d="M60.032 47.0365C59.3874 47.0365 58.776 46.7284 58.4063 46.2023L57.0176 44.2448C56.6953 43.7945 56.5816 43.2257 56.6953 42.6854C56.8091 42.1451 57.1503 41.6711 57.629 41.3915L60.269 39.8416C60.5676 39.6662 60.9089 39.5714 61.2549 39.5667C62.0607 39.5619 62.7859 40.0406 63.0987 40.7848L64.094 43.1689C64.4921 44.1263 64.0798 45.2401 63.1555 45.7046L60.9089 46.8279C60.6388 46.9606 60.3354 47.0365 60.0368 47.0365H60.032Z" fill="#110A1D"/>
    <path d="M38.0546 62.1276C36.846 62.1371 35.7606 61.3787 35.3482 60.2412L30.7555 47.6003C30.4616 47.7425 30.1488 47.8516 29.8312 47.9321C29.4568 48.0269 29.0776 48.0743 28.6937 48.0743C28.4709 48.0743 28.2529 48.0648 28.0396 48.0364C25.646 47.7331 23.8307 45.6808 23.8165 43.2635C23.7976 40.5903 25.9588 38.4006 28.632 38.3816C31.3052 38.3626 33.495 40.524 33.5092 43.1972C33.5092 43.8133 33.4049 44.4058 33.1869 44.9603C33.0684 45.2637 32.9215 45.5528 32.7509 45.8277L41.4862 50.0555L48.1692 40.3723C47.8896 40.2538 47.6194 40.1069 47.3634 39.9315C46.88 39.6044 46.4581 39.1968 46.1169 38.7181C45.5386 37.9029 45.2258 36.9407 45.2211 35.9454C45.2021 33.2722 47.3634 31.0824 50.0366 31.0635C50.1551 31.0635 50.2784 31.0635 50.3969 31.073C52.7904 31.2341 54.7242 33.1537 54.8996 35.5472C54.9802 36.68 54.6816 37.7654 54.037 38.6897C53.6957 39.1731 53.2786 39.5855 52.7999 39.9125C52.5487 40.0879 52.2785 40.2348 51.9989 40.3533L58.8004 49.937L67.3935 45.6381C67.2323 45.33 67.1044 45.0077 67.0096 44.6712C66.8958 44.2636 66.8342 43.837 66.8342 43.4057C66.8342 43.2114 66.8437 43.017 66.8626 42.8275C67.1375 40.3912 69.1946 38.5428 71.645 38.5285C74.3182 38.5096 76.508 40.6709 76.5222 43.3441C76.5411 45.8941 74.5599 48.0364 72.0147 48.2118L71.7114 48.2212C71.2184 48.2212 70.735 48.1549 70.2658 48.0127C69.9624 47.9179 69.6685 47.7994 69.3936 47.6477L65.0805 60.0421C64.6871 61.1844 63.6064 61.9522 62.3978 61.9617L38.0546 62.1228V62.1276Z" fill="#110A1D"/>
  </symbol>
  <symbol viewBox="0 0 100 100" id="slider-m">
    <path d="M50.3967 99.6208C23.074 99.6208 0.851562 77.3879 0.851562 50.0756C0.851562 22.7633 23.0844 0.530518 50.3967 0.530518C77.709 0.530518 99.9418 22.7633 99.9418 50.0756C99.9418 77.3879 77.709 99.6208 50.3967 99.6208ZM50.3967 3.83004C24.8955 3.83004 4.15108 24.5744 4.15108 50.0756C4.15108 75.5768 24.8955 96.3212 50.3967 96.3212C75.8979 96.3212 96.6423 75.5768 96.6423 50.0756C96.6423 24.5744 75.8979 3.83004 50.3967 3.83004Z"/>
    <path d="M82.7174 14.7288L67.3792 30.0671L70.3968 33.0848L85.7351 17.7465L82.7174 14.7288Z"/>
    <path d="M29.9242 67.5206L14.5859 82.8589L17.6035 85.8765L32.9418 70.5382L29.9242 67.5206Z"/>
    <path d="M70.8616 67.5356L67.844 70.5532L83.1822 85.8915L86.1999 82.8738L70.8616 67.5356Z"/>
    <path d="M17.5999 14.2671L14.5823 17.2847L29.9132 32.6156L32.9308 29.598L17.5999 14.2671Z"/>
    <path d="M62.4808 51.4078C63.48 50.4085 63.48 48.7952 62.4808 47.8064L60.3574 45.6934C59.3582 44.6942 57.7449 44.6942 56.7561 45.6934L55.6111 46.8384L54.2892 45.5164C53.29 44.5172 51.6766 44.5172 50.6878 45.5164L49.5429 46.6718L48.221 45.3395C47.2217 44.3403 45.6084 44.3403 44.6195 45.3395L37.5937 52.3653C37.5417 52.4174 37.5417 52.5007 37.5937 52.5631C38.5305 53.4999 40.0606 53.4999 41.0078 52.5631L45.5355 48.0354C46.0247 47.5462 46.8158 47.5462 47.305 48.0354L47.6381 48.3684C47.7005 48.4308 47.7005 48.5245 47.6381 48.587L43.8597 52.3653C43.8077 52.4174 43.8077 52.5007 43.8597 52.5631C44.7965 53.4999 46.3266 53.4999 47.2738 52.5631L51.6142 48.2227C52.1034 47.7335 52.8945 47.7335 53.3837 48.2227L53.7167 48.5558C53.7688 48.6078 53.7688 48.6911 53.7167 48.7536L50.0737 52.3966C50.0217 52.4486 50.0217 52.5319 50.0737 52.5944C51.0105 53.5311 52.5405 53.5311 53.4877 52.5944L57.6824 48.3997C58.1716 47.9104 58.9626 47.9104 59.4519 48.3997L60.1701 49.1178C60.4511 49.3989 60.4511 49.8673 60.1701 50.1483L60.0556 50.2628C59.7745 50.5438 59.3062 50.5438 59.0251 50.2628L58.0987 49.3365C58.0467 49.2844 57.9634 49.2844 57.901 49.3365L56.2981 50.9394C56.246 50.9914 56.246 51.0747 56.2981 51.1371L57.7449 52.5839C58.7441 53.5832 60.3574 53.5832 61.3462 52.5839L62.4912 51.439L62.4808 51.4078Z"/>
    <path d="M50.3978 12.084C29.414 12.084 12.4062 29.0917 12.4062 50.0755C12.4062 71.0593 29.414 88.067 50.3978 88.067C71.3816 88.067 88.3893 71.0593 88.3893 50.0755C88.3893 29.0917 71.3816 12.084 50.3978 12.084ZM51.9486 23.8145C58.0481 24.1684 63.5855 26.604 67.8738 30.4136L62.3885 35.8989C59.5261 33.4737 55.9143 31.9021 51.9486 31.569V23.8145ZM48.8572 23.8145V31.569C44.8916 31.8916 41.2798 33.4737 38.4174 35.8989L32.932 30.4136C37.2204 26.604 42.7578 24.1684 48.8572 23.8145ZM30.7463 32.5994L36.2316 38.0848C33.8064 40.9472 32.2347 44.5589 31.9016 48.5246H24.1472C24.5011 42.4252 26.9367 36.8878 30.7463 32.5994ZM24.1472 51.616H31.9016C32.2243 55.5817 33.8064 59.1935 36.2316 62.0559L30.7463 67.5412C26.9367 63.2529 24.5011 57.7155 24.1472 51.616ZM48.8572 76.3261C42.7578 75.9722 37.2204 73.5366 32.932 69.727L38.4174 64.2416C41.2798 66.6669 44.8916 68.2386 48.8572 68.5717V76.3261ZM34.4309 50.0651C34.4309 41.249 41.5817 34.0983 50.3978 34.0983C59.2139 34.0983 66.3646 41.249 66.3646 50.0651C66.3646 58.8812 59.2139 66.032 50.3978 66.032C41.5817 66.032 34.4309 58.8812 34.4309 50.0651ZM51.9486 76.3261V68.5717C55.9143 68.249 59.5261 66.6669 62.3885 64.2416L67.8738 69.727C63.5855 73.5366 58.0481 75.9722 51.9486 76.3261ZM70.0596 67.5412L64.5743 62.0559C66.9995 59.1935 68.5712 55.5817 68.9043 51.616H76.6587C76.3048 57.7155 73.8692 63.2529 70.0596 67.5412ZM68.9043 48.5246C68.5816 44.5589 66.9995 40.9472 64.5743 38.0848L70.0596 32.5994C73.8692 36.8878 76.3048 42.4252 76.6587 48.5246H68.9043Z"/>
  </symbol>
  <symbol viewBox="0 0 100 100" id="slider-soccer">
    <path d="M49.8769 99.1527C22.5542 99.1527 0.331787 76.9198 0.331787 49.6076C0.331787 22.2953 22.5646 0.0625 49.8769 0.0625C77.1891 0.0625 99.422 22.2953 99.422 49.6076C99.422 76.9198 77.1891 99.1527 49.8769 99.1527ZM49.8769 3.36202C24.3757 3.36202 3.63131 24.1064 3.63131 49.6076C3.63131 75.1087 24.3757 95.8531 49.8769 95.8531C75.378 95.8531 96.1224 75.1087 96.1224 49.6076C96.1224 24.1064 75.378 3.36202 49.8769 3.36202Z"/>
    <path d="M65.9512 18.6731C65.7014 18.6731 65.4516 18.6211 65.2226 18.5066C60.4242 16.1334 55.2615 14.926 49.8803 14.926C44.499 14.926 39.3363 16.1334 34.538 18.5066C33.903 18.8188 33.1432 18.6939 32.6436 18.1943L24.1293 9.68007C23.765 9.31577 23.5985 8.81614 23.6609 8.30612C23.7234 7.7961 24.0148 7.34854 24.452 7.08833C32.1232 2.48771 40.9185 0.0625 49.8907 0.0625C58.8629 0.0625 67.6582 2.49812 75.3294 7.08833C75.7666 7.34854 76.058 7.7961 76.1205 8.30612C76.1829 8.81614 76.006 9.31577 75.6521 9.68007L67.1378 18.1943C66.8151 18.5066 66.3988 18.6731 65.9616 18.6731H65.9512ZM49.8803 11.6265C55.3656 11.6265 60.6532 12.7714 65.6077 15.0301L71.7697 8.86817C65.0665 5.25637 57.541 3.36202 49.8803 3.36202C42.2195 3.36202 34.6941 5.25637 27.991 8.86817L34.1528 15.0301C39.1074 12.7714 44.3949 11.6265 49.8803 11.6265Z"/>
    <path d="M49.8785 99.1526C40.9062 99.1526 32.1109 96.717 24.4398 92.1268C24.0026 91.8666 23.7112 91.419 23.6487 90.909C23.5863 90.399 23.7632 89.8994 24.1171 89.5351L32.6314 81.0208C33.131 80.5212 33.9012 80.3963 34.5258 80.7086C39.3241 83.0817 44.4868 84.2891 49.8681 84.2891C55.2493 84.2891 60.4121 83.0817 65.2105 80.7086C65.8454 80.3963 66.6052 80.5212 67.1048 81.0208L75.6191 89.5351C75.9834 89.8994 76.1499 90.399 76.0874 90.909C76.025 91.419 75.7335 91.8666 75.2964 92.1268C67.6252 96.7274 58.83 99.1526 49.8577 99.1526H49.8785ZM27.9892 90.347C34.6923 93.9588 42.2177 95.8531 49.8785 95.8531C57.5392 95.8531 65.0647 93.9588 71.7679 90.347L65.6059 84.1851C60.6514 86.4438 55.3638 87.5887 49.8785 87.5887C44.3931 87.5887 39.1056 86.4438 34.1511 84.1851L27.9892 90.347Z"/>
    <path d="M90.9825 75.8477C90.5453 75.8477 90.129 75.6812 89.8167 75.3689L81.3024 66.8546C80.8028 66.355 80.6779 65.5848 80.9902 64.9603C83.3634 60.1619 84.5708 54.9992 84.5708 49.618C84.5708 44.2367 83.3634 39.074 80.9902 34.2756C80.6779 33.6407 80.8028 32.8705 81.3024 32.3813L89.8167 23.867C90.181 23.5027 90.6806 23.3361 91.1906 23.3986C91.7007 23.461 92.1482 23.7525 92.4084 24.1897C97.0091 31.8608 99.4343 40.6561 99.4343 49.6284C99.4343 58.6006 97.0091 67.3959 92.4084 75.0671C92.1482 75.5042 91.7007 75.7957 91.1906 75.8581C91.1178 75.8581 91.0553 75.8581 90.9825 75.8581V75.8477ZM84.4563 65.335L90.6182 71.4969C94.23 64.7938 96.1243 57.2683 96.1243 49.6075C96.1243 41.9468 94.23 34.4214 90.6182 27.7182L84.4563 33.8801C86.715 38.8346 87.8599 44.1222 87.8599 49.6075C87.8599 55.0929 86.715 60.3805 84.4563 65.335Z"/>
    <path d="M8.77293 75.8478C8.70007 75.8478 8.63762 75.8478 8.57516 75.8374C8.06514 75.7749 7.61759 75.4835 7.35737 75.0463C2.75675 67.3751 0.331543 58.5799 0.331543 49.6076C0.331543 40.6354 2.75675 31.8401 7.35737 24.1689C7.61759 23.7317 8.06514 23.4403 8.57516 23.3778C9.08519 23.3154 9.58481 23.4923 9.94911 23.8462L18.4634 32.3605C18.963 32.8601 19.0879 33.6304 18.7756 34.2549C16.4024 39.0533 15.195 44.2159 15.195 49.5972C15.195 54.9785 16.4024 60.1411 18.7756 64.9395C19.0879 65.5744 18.963 66.3447 18.4634 66.8339L9.94911 75.3481C9.63685 75.6604 9.22051 75.8374 8.78335 75.8374L8.77293 75.8478ZM9.13721 27.7183C5.52541 34.4214 3.63106 41.9469 3.63106 49.6076C3.63106 57.2684 5.52541 64.7938 9.13721 71.497L15.2992 65.335C13.0405 60.3805 11.8955 55.093 11.8955 49.6076C11.8955 44.1223 13.0405 38.8347 15.2992 33.8802L9.13721 27.7183Z"/>
    <path d="M49.878 11.6162C28.9358 11.6162 11.8865 28.6551 11.8865 49.6077C11.8865 70.5603 28.9254 87.5993 49.878 87.5993C70.8306 87.5993 87.8695 70.5603 87.8695 49.6077C87.8695 28.6551 70.8306 11.6162 49.878 11.6162ZM71.2574 37.1278C73.0581 40.2087 74.151 43.5707 74.5049 47.1409C74.5153 47.2866 74.4528 47.4219 74.3279 47.4948C71.6112 49.1602 69.1756 51.2003 67.0731 53.5838C66.9794 53.6983 66.8233 53.7399 66.688 53.6879L61.9937 52.1579C61.8583 52.1162 61.7647 52.0018 61.7439 51.856C61.213 47.9736 60.0056 44.2577 58.1529 40.802C58.0904 40.6771 58.1009 40.5314 58.1841 40.4169L61.0881 36.42C61.161 36.3263 61.2754 36.2639 61.3899 36.2639C61.4212 36.2639 61.442 36.2639 61.4732 36.2639C64.575 36.9508 67.7601 37.1798 70.9243 36.9196C71.07 36.9092 71.2053 36.982 71.2781 37.1069L71.2574 37.1278ZM59.1833 52.5117C59.1937 52.6158 59.1625 52.7199 59.1 52.7928C56.6332 55.6343 53.4898 57.9138 50.0237 59.371C49.93 59.4127 49.8364 59.4127 49.7427 59.371C46.2766 57.9034 43.1332 55.6239 40.6664 52.7928C40.6039 52.7199 40.5727 52.6158 40.5831 52.5117C41.0619 48.7438 42.2381 45.1424 44.0596 41.8117C44.1116 41.718 44.1949 41.6556 44.299 41.6347C46.1309 41.2496 48.0044 41.0519 49.8884 41.0519C51.7724 41.0519 53.6459 41.2496 55.4778 41.6347C55.5819 41.6556 55.6652 41.718 55.7172 41.8117C57.5387 45.1424 58.7045 48.7438 59.1937 52.5117H59.1833ZM58.6213 26.6775C58.6213 26.6775 58.7462 26.5734 58.8711 26.5734C58.9127 26.5734 58.9648 26.5734 59.0168 26.6047C62.8472 28.1243 66.2716 30.6224 68.9362 33.8178C69.0715 33.974 69.0195 34.1405 68.9882 34.203C68.9674 34.255 68.8738 34.4216 68.6552 34.4216C66.2924 34.4528 63.9401 34.1822 61.6606 33.6409C61.5669 33.6201 61.4837 33.5576 61.4316 33.4743C60.2138 31.4655 59.2354 29.3005 58.5276 27.0522C58.4651 26.8545 58.5796 26.7192 58.6317 26.6775H58.6213ZM44.6216 25.4285C48.0669 24.6895 51.6995 24.6895 55.1448 25.4285C55.2801 25.4597 55.3946 25.5638 55.4258 25.6991C56.1648 28.7905 57.3618 31.7465 58.9751 34.484C59.048 34.6089 59.0376 34.765 58.9544 34.8899L56.0711 38.866C55.9879 38.9805 55.8422 39.043 55.7069 39.0117C51.8973 38.2415 47.8692 38.2415 44.0596 39.0117C43.9243 39.043 43.7785 38.9805 43.6953 38.866L40.8121 34.8899C40.7288 34.7754 40.7184 34.6089 40.7913 34.484C42.4046 31.7465 43.6016 28.7905 44.3406 25.6991C44.3718 25.5638 44.4863 25.4597 44.6216 25.4285ZM30.8302 33.8178C33.4948 30.612 36.9193 28.1139 40.7497 26.6047C40.8017 26.5839 40.8537 26.5734 40.8953 26.5734C41.0306 26.5734 41.1139 26.6463 41.1451 26.6775C41.1972 26.7296 41.3117 26.8545 41.2493 27.0522C40.5415 29.3109 39.563 31.4655 38.3452 33.4743C38.2932 33.5576 38.2099 33.6201 38.1162 33.6409C35.8368 34.1822 33.4844 34.4528 31.1217 34.4216C30.9031 34.4216 30.8094 34.255 30.7886 34.203C30.7574 34.1405 30.7053 33.974 30.8406 33.8178H30.8302ZM28.5091 37.1278C28.5716 37.0133 28.6965 36.9404 28.8318 36.9404C28.8318 36.9404 28.8525 36.9404 28.863 36.9404C32.0376 37.1902 35.2227 36.9717 38.314 36.2847C38.4597 36.2535 38.6054 36.3055 38.6887 36.4304L41.5928 40.4273C41.676 40.5418 41.6864 40.6979 41.624 40.8124C39.7712 44.2681 38.5638 47.984 38.033 51.8664C38.0121 52.0017 37.9185 52.1162 37.7832 52.1683L33.0889 53.6983C32.9535 53.7399 32.7974 53.6983 32.7037 53.5943C30.6012 51.2107 28.1656 49.1705 25.449 47.5052C25.3345 47.4323 25.2616 47.297 25.272 47.1513C25.6259 43.5811 26.7188 40.2088 28.5195 37.1382L28.5091 37.1278ZM29.6436 62.7747C29.5812 62.9724 29.4042 63.0141 29.3314 63.0245C29.2585 63.0245 29.0919 63.0244 28.9774 62.8579C26.7604 59.371 25.449 55.3325 25.1887 51.1899C25.1783 50.9817 25.3136 50.8776 25.3761 50.8464C25.4385 50.8151 25.6051 50.7423 25.7716 50.8672C27.6972 52.2307 29.4459 53.8337 30.9759 55.6135C31.0384 55.6864 31.0696 55.7801 31.0592 55.8842C30.8718 58.2261 30.393 60.5472 29.6332 62.7851L29.6436 62.7747ZM39.9273 72.2778C36.6798 70.8518 33.8175 68.7596 31.4235 66.0742C31.3298 65.9701 31.2986 65.814 31.3506 65.6891C32.5684 62.7538 33.3387 59.6625 33.6405 56.4982C33.651 56.3525 33.755 56.2276 33.8903 56.186L38.5326 54.6767C38.5326 54.6767 38.6055 54.6559 38.6471 54.6559C38.7512 54.6559 38.8449 54.6976 38.9177 54.7809C41.5199 57.6953 44.7778 60.0684 48.348 61.6401C48.4833 61.7026 48.5665 61.8275 48.5665 61.9732V66.8548C48.5665 67.0006 48.4833 67.1359 48.348 67.1879C45.4335 68.4474 42.7272 70.144 40.302 72.2153C40.198 72.309 40.0418 72.3298 39.9169 72.2673L39.9273 72.2778ZM56.3001 73.3082C56.2897 73.3811 56.2377 73.5476 56.0295 73.5996C52.0118 74.6197 47.765 74.6197 43.7473 73.5996C43.5495 73.5476 43.4871 73.3811 43.4767 73.3082C43.4663 73.2354 43.4454 73.0688 43.6224 72.9335C45.5168 71.5284 47.5777 70.3521 49.7531 69.4466C49.8468 69.4049 49.9405 69.4049 50.0341 69.4466C52.1991 70.3521 54.2601 71.5284 56.1648 72.9335C56.3314 73.0584 56.3209 73.2354 56.3105 73.3082H56.3001ZM68.3637 66.0846C65.9698 68.77 63.1074 70.8518 59.8599 72.2778C59.7246 72.3402 59.5789 72.3089 59.4748 72.2257C57.0496 70.1544 54.3537 68.4578 51.4289 67.1983C51.2936 67.1359 51.2103 67.011 51.2103 66.8653V61.9836C51.2103 61.8379 51.2936 61.7026 51.4289 61.6505C54.999 60.0788 58.2673 57.7056 60.8591 54.7912C60.9319 54.7079 61.0256 54.6663 61.1297 54.6663C61.1714 54.6663 61.2026 54.6663 61.2442 54.6871L65.8865 56.1964C66.0218 56.238 66.1259 56.3629 66.1363 56.5087C66.4381 59.6729 67.2084 62.7539 68.4262 65.6995C68.4782 65.8244 68.4574 65.9805 68.3533 66.0846H68.3637ZM70.7994 62.8683C70.6849 63.0453 70.5079 63.0453 70.4455 63.0349C70.3726 63.0349 70.2061 62.9829 70.1332 62.7851C69.3838 60.5472 68.905 58.2261 68.7072 55.8842C68.7072 55.7905 68.728 55.6864 68.7905 55.6135C70.3205 53.8337 72.0692 52.2411 73.9948 50.8672C74.0676 50.8152 74.1405 50.7943 74.203 50.7943C74.2862 50.7943 74.3487 50.8255 74.3903 50.8464C74.4528 50.8776 74.5985 50.9817 74.5777 51.1899C74.3175 55.3325 73.006 59.371 70.789 62.8579L70.7994 62.8683Z"/>
  </symbol>
  <symbol viewBox="0 0 100 100" id="slider-timer">
    <path d="M49.6153 99.4071C36.9167 99.4071 24.2286 94.5775 14.559 84.9078C-4.76983 65.579 -4.76983 34.1345 14.559 14.8057C23.9268 5.43793 36.3755 0.285645 49.6153 0.285645C62.8551 0.285645 75.3038 5.43793 84.6716 14.8057C104 34.1345 104 65.579 84.6716 84.9078C75.0124 94.5671 62.3138 99.4071 49.6153 99.4071ZM17.1612 82.3057C35.0536 100.198 64.1665 100.198 82.059 82.3057C99.9514 64.4132 99.9514 35.3003 82.059 17.4079C73.3886 8.73747 61.8662 3.97028 49.6049 3.97028C37.3435 3.97028 25.8211 8.74788 17.1507 17.4079C-0.7417 35.3003 -0.7417 64.4132 17.1507 82.3057H17.1612Z"/>
    <path d="M51.4497 39.4224L42.2693 52.2874H47.7754V61.4678L56.9559 48.6131H51.4497V39.4224Z"/>
    <path d="M49.6055 32.2715C39.5508 32.2715 31.3904 40.4319 31.3904 50.4866C31.3904 60.5413 39.5508 68.6809 49.6055 68.6809C59.6602 68.6809 67.8206 60.5205 67.8206 50.4866C67.8206 40.4527 59.6602 32.2715 49.6055 32.2715ZM49.6055 66.4326C40.779 66.4326 33.6178 59.2715 33.6178 50.445C33.6178 41.6185 40.779 34.4573 49.6055 34.4573C58.432 34.4573 65.5932 41.6185 65.5932 50.445C65.5932 59.2715 58.432 66.4326 49.6055 66.4326Z"/>
    <path d="M77.7625 21.7068C70.2474 14.1813 60.2447 10.0491 49.6071 10.0491C38.9694 10.0491 28.9772 14.1917 21.4517 21.7068C5.93244 37.226 5.93244 62.4878 21.4517 78.0175C29.2166 85.7823 39.4066 89.6647 49.6071 89.6647C59.8075 89.6647 69.9976 85.7823 77.7625 78.0175C93.2817 62.4982 93.2817 37.2364 77.7625 21.7068ZM49.6071 75.1968C35.9926 75.1968 24.9074 64.1115 24.9074 50.497C24.9074 44.4808 27.062 38.9643 30.6426 34.6551L27.624 31.6366C26.7601 30.7727 26.7601 29.3675 27.624 28.4932C28.4879 27.6189 29.8931 27.6293 30.7675 28.4932L33.786 31.5117C37.5331 28.3787 42.2481 26.3178 47.39 25.8806V23.8405H45.35C43.5493 23.8405 42.0608 22.3521 42.0608 20.5514V18.834C42.0608 17.0125 43.5493 15.5449 45.35 15.5449H53.8851C55.6857 15.5449 57.1742 17.0125 57.1742 18.834V20.5514C57.1742 22.3521 55.6857 23.8405 53.8851 23.8405H51.8449V25.8806C56.9972 26.3282 61.7019 28.3891 65.449 31.5117L68.4675 28.4932C69.3314 27.6293 70.7366 27.6293 71.6109 28.4932C72.4748 29.3571 72.4748 30.7622 71.6109 31.6366L68.5924 34.6551C72.173 38.9643 74.3276 44.4704 74.3276 50.497C74.3276 64.1115 63.2424 75.1968 49.6279 75.1968H49.6071Z"/>
  </symbol>
  <symbol viewBox="0 0 100 222" id="slider-world">
    <path d="M0.546753 50.4613C0.546753 23.1386 22.7796 0.905762 50.1023 0.905762C77.425 0.905762 99.6578 23.1386 99.6578 50.4613C99.6578 77.7839 77.425 100.017 50.1023 100.017C22.7796 100.017 0.546753 77.7839 0.546753 50.4613ZM96.0877 50.4613C96.0877 25.1058 75.4577 4.47592 50.1023 4.47592C24.7469 4.47592 4.11697 25.1058 4.11697 50.4613C4.11697 75.8167 24.7469 96.4466 50.1023 96.4466C75.4577 96.4466 96.0877 75.8167 96.0877 50.4613Z"/>
    <path d="M0.544089 171.607C0.544089 170.618 1.34558 169.827 2.32399 169.827C3.3024 169.827 4.10389 170.629 4.10389 171.607C4.10389 196.963 24.7338 217.593 50.0892 217.593C75.4447 217.593 96.0746 196.963 96.0746 171.607C96.0746 170.618 96.8761 169.827 97.8545 169.827C98.8329 169.827 99.6343 170.629 99.6343 171.607C99.6343 198.93 77.4015 221.163 50.0788 221.163C22.7561 221.163 0.523315 198.93 0.523315 171.607H0.544089Z"/>
    <path d="M98.1434 49.2644H76.4414V53.5423H98.1434V49.2644Z"/>
    <path d="M23.4207 49.2644H1.71863V53.5423H23.4207V49.2644Z"/>
    <path d="M52.4107 78.2419H48.1328V99.944H52.4107V78.2419Z"/>
    <path d="M52.4107 2.86255H48.1328V24.5645H52.4107V2.86255Z"/>
    <path d="M75.7859 24.2522C60.9432 9.40944 36.868 9.40944 22.0148 24.2522C7.17213 39.0949 7.17213 63.1701 22.0148 78.0232C36.8576 92.8659 60.9328 92.8659 75.7859 78.0232C90.6286 63.1805 90.6286 39.1053 75.7859 24.2522ZM56.2489 27.4684C60.5789 28.8112 64.4613 31.3196 67.4798 34.7337L68.0626 35.3894L67.2092 35.5872C64.9505 36.118 62.5357 36.5552 60.0376 36.8778L59.5901 36.9403L59.4652 36.5031C59.0488 35.0772 58.5596 33.7032 57.9975 32.4333C57.3001 30.8408 56.5195 29.446 55.666 28.2699L54.7292 26.9896L56.2489 27.458V27.4684ZM38.8768 49.9511L38.8977 49.4098C39.0018 46.1207 39.3661 42.9773 39.9906 40.0837L40.0843 39.6257L40.5526 39.6673C46.0276 40.1461 51.8773 40.1253 57.321 39.6153L57.7893 39.5737L57.8934 40.0317C58.5284 42.9565 58.8927 46.1103 58.9863 49.4098V49.9511H38.8873H38.8768ZM58.9863 52.3659V52.9072C58.8718 56.2067 58.5075 59.3605 57.8726 62.2853L57.7685 62.7433L57.3001 62.7017C51.8564 62.1916 46.0068 62.1812 40.5319 62.6496L40.0634 62.6912L39.9697 62.2333C39.3452 59.3396 38.9809 56.2067 38.8768 52.9072L38.856 52.3659H58.9655H58.9863ZM48.9316 26.5629C51.9605 26.5629 55.0415 30.4036 56.9671 36.5968L57.1648 37.2213L56.5091 37.2734C53.9486 37.4919 51.3048 37.6064 48.6506 37.6064C46.1837 37.6064 43.7273 37.5127 41.3333 37.315L40.6775 37.2629L40.8753 36.628C42.8009 30.4141 45.8923 26.5525 48.9316 26.5525V26.5629ZM30.2793 34.8481C33.3186 31.3821 37.2323 28.832 41.6143 27.4789L43.1444 27.0105L42.1972 28.3011C41.3437 29.4669 40.5527 30.872 39.8657 32.4542C39.314 33.7032 38.8144 35.0979 38.3773 36.5968L38.2524 37.0236L37.8048 36.9715C35.2859 36.6593 32.8503 36.2429 30.5604 35.7121L29.6964 35.5143L30.2793 34.8481ZM24.2007 49.389C24.4921 45.3297 25.7932 41.3744 27.9686 37.9291L28.1768 37.6064L28.5515 37.7001C31.2161 38.3767 34.0889 38.9179 37.1074 39.3031L37.6695 39.3759L37.5549 39.938C36.9304 42.9565 36.5766 46.1519 36.4829 49.4411V49.9511H24.1694L24.2111 49.389H24.2007ZM28.1768 64.7105L27.9686 64.3878C25.7932 60.953 24.4921 56.9873 24.2007 52.9279L24.159 52.3659H36.462V52.8759C36.5661 56.165 36.9305 59.3709 37.5446 62.379L37.6591 62.941L37.097 63.0139C34.0889 63.399 31.2057 63.9403 28.5411 64.6169L28.1664 64.7105H28.1768ZM41.6143 74.8485C37.2323 73.4954 33.3186 70.9453 30.2793 67.4792L29.6964 66.8131L30.5604 66.6153C32.8503 66.0949 35.2859 65.6681 37.8048 65.3558L38.2524 65.3038L38.3773 65.7306C38.8144 67.2294 39.314 68.6242 39.8657 69.8732C40.5631 71.4657 41.3437 72.8605 42.1972 74.0367L43.1444 75.3273L41.6143 74.8589V74.8485ZM48.9316 75.7541C45.8923 75.7541 42.8009 71.8925 40.8753 65.6785L40.6775 65.0436L41.3333 64.9916C46.2982 64.596 51.5858 64.6064 56.5091 65.0332L57.1648 65.0852L56.9671 65.7098C55.0311 71.8925 51.9501 75.7437 48.9316 75.7437V75.7541ZM67.4798 67.5833C64.4613 70.9973 60.5684 73.5058 56.2489 74.8485L54.7292 75.3169L55.666 74.0367C56.5195 72.8709 57.3001 71.4657 57.9975 69.8732C58.5492 68.593 59.0488 67.2294 59.4652 65.8034L59.5901 65.3663L60.0376 65.4287C62.5357 65.7514 64.9505 66.1885 67.2092 66.7194L68.0626 66.9276L67.4798 67.5833ZM73.6521 52.9279C73.3607 57.0289 72.0388 61.0363 69.8113 64.5127L69.6032 64.8354L69.2285 64.7418C66.5951 64.0444 63.7327 63.4927 60.735 63.0868L60.1729 63.0139L60.2874 62.4623C60.9119 59.4438 61.2762 56.2275 61.3699 52.8863V52.3763H73.6833L73.6417 52.9383L73.6521 52.9279ZM61.3907 49.9511V49.4411C61.2866 46.0999 60.9224 42.8732 60.2978 39.8651L60.1834 39.3135L60.7454 39.2406C63.7431 38.8347 66.595 38.283 69.2388 37.5856L69.6136 37.492L69.8217 37.8146C72.0491 41.2911 73.3815 45.288 73.6625 49.3994L73.7042 49.9615H61.4011L61.3907 49.9511Z"/>
    <path d="M0.484375 172.357V52.7616C0.484375 51.7728 1.28586 50.9817 2.26427 50.9817C3.24269 50.9817 4.04417 51.7832 4.04417 52.7616V172.357C4.04417 173.346 3.24269 174.137 2.26427 174.137C1.28586 174.137 0.484375 173.335 0.484375 172.357Z"/>
    <path d="M96.0352 172.628V53.0323C96.0352 52.0435 96.8366 51.2524 97.815 51.2524C98.7934 51.2524 99.5949 52.0539 99.5949 53.0323V172.628C99.5949 173.616 98.7934 174.407 97.815 174.407C96.8366 174.407 96.0352 173.606 96.0352 172.628Z"/>
  </symbol>
  <symbol viewBox="0 0 16 16" id="icon-union">
    <path d="M14.1692 3.71888C12.7989 1.84023 11.0012 0.775068 8.6355 0.5C9.74223 1.7817 10.5035 3.16875 10.9895 4.71966C12.0962 4.49141 13.1444 4.19294 14.1692 3.71888Z"/>
    <path d="M4.25006 5.52288C3.83001 5.41303 3.42197 5.30631 3.01989 5.18202C2.66058 5.06606 2.30606 4.93336 1.95173 4.80073C1.7517 4.72586 1.55173 4.65102 1.35101 4.57922C0.162292 6.66856 0.273551 9.63579 1.34515 11.3857C1.94399 11.1975 2.53794 11.0093 3.13731 10.8194L3.1384 10.8191C3.67559 10.6489 4.21745 10.4772 4.77076 10.303C4.45455 8.78132 4.4604 7.21285 4.77661 5.66193C4.59874 5.61407 4.42337 5.5682 4.25006 5.52288Z"/>
    <path d="M12.9458 5.15847C12.3749 5.33989 11.8035 5.52147 11.2297 5.70289C11.5459 7.23625 11.5342 8.79301 11.2297 10.2971C12.3891 10.6658 13.5193 11.0228 14.6612 11.3798C15.7855 9.45435 15.7737 6.52809 14.6612 4.61432C14.0874 4.7957 13.5166 4.97709 12.9458 5.15847Z"/>
    <path d="M5.7194 10.2269C5.39148 8.74034 5.40319 7.28307 5.70183 5.82579C5.94061 5.83983 6.17518 5.8565 6.40679 5.87296C6.9476 5.91139 7.47255 5.94869 7.99728 5.94869C8.52199 5.94869 9.0467 5.91141 9.58748 5.87298C9.81907 5.85652 10.054 5.83983 10.2927 5.82579C10.6148 7.25966 10.6031 8.72864 10.2869 10.221C8.75267 10.022 7.2536 10.0103 5.7194 10.2269Z"/>
    <path d="M14.1693 12.2753C12.8107 14.1539 11.0072 15.2132 8.64145 15.5C9.73062 14.2242 10.5094 12.843 10.9837 11.2862C12.0846 11.4969 13.1269 11.8129 14.1693 12.2753Z"/>
    <path d="M7.35894 0.5C4.99322 0.780921 3.18965 1.84608 1.78428 3.78326C2.88515 4.12271 3.92162 4.44459 4.99322 4.77819C5.49096 3.15704 6.26391 1.7817 7.35894 0.5Z"/>
    <path d="M7.35894 15.5C4.99907 15.2191 3.20136 14.1598 1.78428 12.2167C2.13525 12.1085 2.47968 12.0021 2.82079 11.8967L2.82228 11.8962C3.55057 11.6711 4.26377 11.4508 4.99322 11.2277C5.49096 12.8312 6.2522 14.2183 7.35894 15.5Z"/>
    <path d="M10.0408 4.86013C9.60158 3.48479 8.92817 2.28503 7.99711 1.19646C7.06019 2.30258 6.38093 3.4965 5.95931 4.86013C7.33541 5.04156 8.67052 5.04741 10.0408 4.86013Z"/>
    <path d="M8.00297 14.8035C7.07191 13.7208 6.39849 12.521 5.95931 11.1457C7.3237 10.9526 8.65881 10.9584 10.0466 11.1399C9.60744 12.5093 8.93403 13.7033 8.00297 14.8035Z"/>
  </symbol>
  <symbol viewBox="0 0 110 50" id="slider-dollar-mobile">
    <path d="M84.9487 1.00835C98.4546 1.00835 109.445 11.9983 109.445 25.5042C109.445 39.0101 98.4546 50 84.9487 50C71.4428 50 60.4529 39.0101 60.4529 25.5042C60.4529 11.9983 71.4428 1.00835 84.9487 1.00835ZM84.9487 48.2352C97.4822 48.2352 107.68 38.0376 107.68 25.5042C107.68 12.9707 97.4822 2.77312 84.9487 2.77312C72.4152 2.77312 62.2176 12.9707 62.2176 25.5042C62.2176 38.0376 72.4152 48.2352 84.9487 48.2352Z"/>
    <path d="M25.07 1.00694C25.5588 1.00694 25.9499 1.40309 25.9499 1.88673C25.9499 2.37037 25.5537 2.76655 25.07 2.76655C12.5366 2.76655 2.33898 12.9641 2.33898 25.4976C2.33898 38.0311 12.5366 48.2287 25.07 48.2287C25.5588 48.2287 25.9499 48.6248 25.9499 49.1085C25.9499 49.5921 25.5537 49.9883 25.07 49.9883C11.5641 49.9883 0.574219 38.9984 0.574219 25.4925C0.574219 11.9866 11.5641 0.996635 25.07 0.996635V1.00694Z"/>
    <path d="M80.2358 21.1715C80.2358 22.0719 80.8481 22.8539 81.7228 23.07L83.3846 23.4868V19.2112H82.2013C81.1208 19.2112 80.241 20.091 80.241 21.1715H80.2358Z"/>
    <path d="M86.5222 31.7858H87.7056C88.7861 31.7858 89.6659 30.906 89.6659 29.8256C89.6659 28.9252 89.0536 28.1431 88.1789 27.927L86.5171 27.5103V31.7858H86.5222Z"/>
    <path d="M84.9539 5.56665C73.9639 5.56665 65.0166 14.5088 65.0166 25.5039C65.0166 36.499 73.9588 45.4412 84.9539 45.4412C95.949 45.4412 104.891 36.499 104.891 25.5039C104.891 14.5088 95.949 5.56665 84.9539 5.56665ZM92.8156 22.3551H89.6719V20.7807C89.6719 19.9163 88.967 19.2063 88.0975 19.2063H86.5231V24.2691L88.9465 24.8762C91.2206 25.4473 92.8105 27.4797 92.8105 29.8258C92.8105 32.6402 90.5209 34.9298 87.7065 34.9298H86.5231V38.9121H83.3795V34.9298H81.8051C79.2017 34.9298 77.087 32.8151 77.087 30.2117V28.6373H80.2307V30.2117C80.2307 31.0761 80.9355 31.7861 81.8051 31.7861H83.3795V26.7233L80.9561 26.1162C78.682 25.5451 77.0922 23.5128 77.0922 21.1666C77.0922 18.3522 79.3817 16.0627 82.1961 16.0627H83.3795V12.0804H86.5231V16.0627H88.0975C90.7009 16.0627 92.8156 18.1773 92.8156 20.7807V22.3551Z"/>
    <path d="M24.6945 0.977932L83.8117 0.977932C84.3005 0.977932 84.6915 1.37409 84.6915 1.85772C84.6915 2.34136 84.2954 2.73755 83.8117 2.73755L24.6945 2.73755C24.2057 2.73755 23.8147 2.34136 23.8147 1.85772C23.8147 1.37409 24.2109 0.977932 24.6945 0.977932Z"/>
    <path d="M24.5656 48.2021L83.6828 48.2021C84.1716 48.2021 84.5626 48.5982 84.5626 49.0819C84.5626 49.5655 84.1665 49.9617 83.6828 49.9617L24.5656 49.9617C24.0768 49.9617 23.6858 49.5655 23.6858 49.0819C23.6858 48.5982 24.0819 48.2021 24.5656 48.2021Z"/>
  </symbol>
  <symbol viewBox="0 0 109 50" id="slider-world-mobile">
    <path d="M24.5844 49.3894C11.0786 49.3894 0.088623 38.3994 0.088623 24.8935C0.088623 11.3877 11.0786 0.397724 24.5844 0.397724C38.0903 0.397724 49.0803 11.3877 49.0803 24.8935C49.0803 38.3994 38.0903 49.3894 24.5844 49.3894ZM24.5844 2.16249C12.051 2.16249 1.85339 12.3601 1.85339 24.8935C1.85339 37.427 12.051 47.6246 24.5844 47.6246C37.1179 47.6246 47.3155 37.427 47.3155 24.8935C47.3155 12.3601 37.1179 2.16249 24.5844 2.16249Z"/>
    <path d="M84.4682 49.3906C83.9794 49.3906 83.5884 48.9944 83.5884 48.5108C83.5884 48.0271 83.9846 47.631 84.4682 47.631C97.0017 47.631 107.199 37.4334 107.199 24.8999C107.199 12.3664 97.0017 2.16885 84.4682 2.16885C83.9794 2.16885 83.5884 1.77266 83.5884 1.28902C83.5884 0.805386 83.9846 0.409233 84.4682 0.409233C97.9741 0.409233 108.964 11.3992 108.964 24.9051C108.964 38.4109 97.9741 49.4009 84.4682 49.4009V49.3906Z"/>
    <path d="M48.8818 23.9211H38.1543V26.0358H48.8818V23.9211Z"/>
    <path d="M11.9456 23.9211H1.21802V26.0358H11.9456V23.9211Z"/>
    <path d="M26.2755 38.2451H24.1609V48.9727H26.2755V38.2451Z"/>
    <path d="M26.2755 0.984131H24.1609V11.7117H26.2755V0.984131Z"/>
    <path d="M37.8303 11.5574C30.4934 4.22046 18.5928 4.22046 11.2507 11.5574C3.91382 18.8943 3.91382 30.7949 11.2507 38.137C18.5876 45.4739 30.4883 45.4739 37.8303 38.137C45.1673 30.8001 45.1673 18.8994 37.8303 11.5574ZM28.173 13.1472C30.3133 13.8109 32.2325 15.0509 33.7245 16.7385L34.0127 17.0626L33.5908 17.1604C32.4743 17.4228 31.2806 17.6389 30.0458 17.7984L29.8246 17.8293L29.7628 17.6132C29.557 16.9083 29.3152 16.2291 29.0374 15.6014C28.6926 14.8142 28.3068 14.1248 27.8849 13.5434L27.4218 12.9105L28.173 13.1421V13.1472ZM19.5858 24.2606L19.5961 23.9931C19.6476 22.3672 19.8276 20.8134 20.1363 19.3831L20.1827 19.1567L20.4142 19.1773C23.1205 19.4139 26.0121 19.4037 28.7029 19.1516L28.9344 19.131L28.9859 19.3574C29.2998 20.8031 29.4798 22.3621 29.5261 23.9931V24.2606H19.591H19.5858ZM29.5261 25.4543V25.7219C29.4696 27.3529 29.2895 28.9118 28.9756 30.3576L28.9242 30.584L28.6926 30.5634C26.0018 30.3113 23.1102 30.3061 20.4039 30.5377L20.1724 30.5582L20.126 30.3318C19.8173 28.9015 19.6373 27.3529 19.5858 25.7219L19.5755 25.4543H29.5158H29.5261ZM24.556 12.6996C26.0532 12.6996 27.5762 14.5981 28.528 17.6595L28.6258 17.9682L28.3016 17.9939C27.0359 18.1019 25.7291 18.1585 24.4171 18.1585C23.1977 18.1585 21.9834 18.1122 20.8 18.0145L20.4759 17.9888L20.5737 17.6749C21.5255 14.6033 23.0536 12.6945 24.556 12.6945V12.6996ZM15.3359 16.7951C16.8383 15.0818 18.7729 13.8212 20.939 13.1524L21.6953 12.9208L21.2271 13.5588C20.8052 14.1351 20.4142 14.8297 20.0746 15.6117C19.8019 16.2291 19.5549 16.9186 19.3389 17.6595L19.2771 17.8704L19.0559 17.8447C17.8108 17.6904 16.6068 17.4845 15.4749 17.2221L15.0478 17.1244L15.3359 16.7951ZM12.3312 23.9828C12.4753 21.9762 13.1184 20.0211 14.1937 18.318L14.2967 18.1585L14.4819 18.2048C15.799 18.5393 17.2191 18.8068 18.7111 18.9972L18.989 19.0332L18.9324 19.311C18.6237 20.8031 18.4487 22.3827 18.4024 24.0085V24.2606H12.3158L12.3364 23.9828H12.3312ZM14.2967 31.5564L14.1937 31.3969C13.1184 29.699 12.4753 27.7387 12.3312 25.7321L12.3106 25.4543H18.3921V25.7064C18.4436 27.3323 18.6237 28.917 18.9272 30.4039L18.9838 30.6817L18.706 30.7177C17.219 30.9081 15.7939 31.1757 14.4767 31.5101L14.2915 31.5564H14.2967ZM20.939 36.5677C18.7729 35.8988 16.8383 34.6383 15.3359 32.925L15.0478 32.5957L15.4749 32.4979C16.6068 32.2407 17.8108 32.0297 19.0559 31.8754L19.2771 31.8497L19.3389 32.0606C19.5549 32.8015 19.8019 33.491 20.0746 34.1084C20.4193 34.8956 20.8052 35.585 21.2271 36.1664L21.6953 36.8044L20.939 36.5729V36.5677ZM24.556 37.0153C23.0536 37.0153 21.5255 35.1065 20.5737 32.0349L20.4759 31.721L20.8 31.6953C23.2543 31.4998 25.868 31.5049 28.3016 31.7159L28.6258 31.7416L28.528 32.0503C27.571 35.1065 26.0481 37.0102 24.556 37.0102V37.0153ZM33.7245 32.9764C32.2325 34.664 30.3082 35.904 28.173 36.5677L27.4218 36.7992L27.8849 36.1664C28.3068 35.5902 28.6926 34.8956 29.0374 34.1084C29.31 33.4755 29.557 32.8015 29.7628 32.0966L29.8246 31.8805L30.0458 31.9114C31.2806 32.0709 32.4743 32.287 33.5908 32.5494L34.0127 32.6523L33.7245 32.9764ZM36.7756 25.7321C36.6315 27.7593 35.9781 29.7402 34.8771 31.4586L34.7742 31.6181L34.5889 31.5718C33.2872 31.2271 31.8723 30.9544 30.3905 30.7537L30.1127 30.7177L30.1693 30.4451C30.478 28.953 30.6581 27.3631 30.7044 25.7116V25.4594H36.791L36.7705 25.7373L36.7756 25.7321ZM30.7147 24.2606V24.0085C30.6632 22.3569 30.4831 20.762 30.1744 19.275L30.1178 19.0024L30.3957 18.9663C31.8775 18.7657 33.2872 18.493 34.5941 18.1482L34.7793 18.102L34.8822 18.2615C35.9832 19.9799 36.6418 21.9556 36.7807 23.988L36.8013 24.2658H30.7198L30.7147 24.2606Z"/>
    <path d="M84.8386 49.4202L25.7214 49.4202C25.2326 49.4202 24.8416 49.024 24.8416 48.5403C24.8416 48.0567 25.2377 47.6605 25.7214 47.6605L84.8386 47.6605C85.3274 47.6605 85.7184 48.0567 85.7184 48.5403C85.7184 49.024 85.3222 49.4202 84.8386 49.4202Z"/>
    <path d="M84.9726 2.18872L25.8554 2.18872C25.3666 2.18872 24.9756 1.79257 24.9756 1.30893C24.9756 0.825289 25.3718 0.429104 25.8554 0.429104L84.9726 0.429104C85.4614 0.429104 85.8524 0.825289 85.8524 1.30893C85.8524 1.79257 85.4562 2.18872 84.9726 2.18872Z"/>
  </symbol>
  <symbol viewBox="0 0 114 50" id="slider-crown-with-frame-mobile">
    <path d="M71.0788 42.1694C61.4448 32.5354 61.4448 16.8614 71.0788 7.22744C80.7127 -2.40654 96.3867 -2.40654 106.021 7.22744C115.655 16.8614 115.655 32.5354 106.021 42.1694C96.3867 51.8034 80.7127 51.8034 71.0788 42.1694ZM104.856 8.39186C95.8642 -0.600171 81.2352 -0.600171 72.2455 8.39186C63.2535 17.3839 63.2535 32.0129 72.2455 41.0026C81.2375 49.9947 95.8666 49.9947 104.856 41.0026C113.848 32.0106 113.848 17.3815 104.856 8.39186Z"/>
    <path d="M71.0783 42.1696C67.9154 39.0067 65.6685 35.0472 64.5861 30.7222C64.5252 30.4762 64.5814 30.2161 64.7361 30.017C64.893 29.8155 65.132 29.7007 65.385 29.7007H71.3899C71.7436 29.7007 72.0576 29.9256 72.1701 30.2606C73.0252 32.791 74.4216 35.0331 76.3193 36.9309C78.2147 38.8263 80.4592 40.2226 82.9896 41.0801C83.3246 41.1926 83.5495 41.5065 83.5495 41.8603V47.8652C83.5495 48.1182 83.4323 48.3572 83.2332 48.5141C83.0317 48.6711 82.7716 48.725 82.5256 48.6641C78.2007 47.5817 74.2435 45.3372 71.0783 42.1743V42.1696ZM66.4651 31.3454C67.5569 34.9816 69.5413 38.3038 72.2427 41.0052C74.944 43.7065 78.2663 45.6909 81.9025 46.7827V42.439C79.3581 41.4901 77.0901 40.0305 75.1549 38.0953C73.2197 36.16 71.7601 33.8921 70.8088 31.3477H66.4651V31.3454Z"/>
    <path d="M93.7902 48.4436C93.6355 48.289 93.5488 48.0805 93.5488 47.8603V41.8554C93.5488 41.5016 93.7737 41.1877 94.1088 41.0752C96.6391 40.2201 98.8813 38.8237 100.779 36.926C102.677 35.0282 104.071 32.7861 104.928 30.2557C105.041 29.9207 105.355 29.6958 105.708 29.6958H111.713C111.966 29.6958 112.205 29.8129 112.362 30.0121C112.519 30.2112 112.573 30.4736 112.512 30.7173C111.427 35.0423 109.183 38.9994 106.02 42.1647C102.857 45.3299 98.8977 47.5744 94.5727 48.6568C94.3267 48.7178 94.0666 48.6615 93.8675 48.5069C93.8417 48.4835 93.8159 48.4624 93.7925 48.439L93.7902 48.4436ZM95.1959 42.4365V46.7802C98.8321 45.6884 102.154 43.704 104.856 41.0026C107.557 38.3013 109.539 34.979 110.633 31.3428H106.289C105.341 33.8872 103.881 36.1528 101.943 38.0904C100.008 40.0256 97.7403 41.4876 95.1959 42.4365Z"/>
    <path d="M64.802 19.4574C64.7786 19.4339 64.7552 19.4081 64.7364 19.3824C64.5795 19.1832 64.5256 18.9208 64.5865 18.6748C65.6689 14.3498 67.9134 10.3903 71.0786 7.22744C74.2439 4.06453 78.201 1.8177 82.526 0.735279C82.772 0.674364 83.0321 0.73059 83.2312 0.885221C83.4304 1.04219 83.5475 1.28117 83.5475 1.53421V7.53905C83.5475 7.89282 83.3226 8.20677 82.9876 8.31923C80.4573 9.17439 78.2151 10.5707 76.3173 12.4685C74.4219 14.3639 73.0256 16.6084 72.1681 19.1387C72.0556 19.4737 71.7417 19.6987 71.3879 19.6987H65.3831C65.1628 19.6987 64.952 19.612 64.7997 19.4597L64.802 19.4574ZM81.9005 2.61662C78.2643 3.70841 74.9421 5.69285 72.2407 8.3942C69.5394 11.0956 67.5573 14.4178 66.4631 18.054H70.8069C71.7557 15.5096 73.2154 13.244 75.1529 11.3064C77.0882 9.37119 79.3561 7.91157 81.9005 6.96035V2.61662Z"/>
    <path d="M101.945 11.3041C94.5605 3.91933 82.5415 3.91698 75.1567 11.3041C67.7695 18.6913 67.7719 30.708 75.1567 38.0928C82.5415 45.4776 94.5582 45.4799 101.945 38.0928C109.332 30.7056 109.33 18.6889 101.945 11.3041Z"/>
    <path d="M83.6268 23.2459C83.4792 23.2459 83.3292 23.2131 83.1934 23.1475L82.132 22.6344C81.6705 22.4095 81.4596 21.8636 81.6517 21.388L82.1391 20.1744C82.289 19.8042 82.6428 19.5629 83.0411 19.5605C83.2121 19.5605 83.3808 19.6027 83.5307 19.6894L84.7959 20.411C85.0325 20.5446 85.2036 20.7765 85.2645 21.0436C85.3254 21.3107 85.2715 21.5918 85.1169 21.8168L84.4234 22.8219C84.243 23.0843 83.9431 23.2436 83.6244 23.2436L83.6268 23.2459Z" fill="#110A1D"/>
    <path d="M93.4235 23.1805C93.1049 23.1805 92.8027 23.0282 92.6199 22.7681L91.9335 21.8005C91.7742 21.5779 91.7179 21.2968 91.7742 21.0297C91.8304 20.7626 91.9991 20.5283 92.2357 20.3901L93.5407 19.6239C93.6883 19.5373 93.857 19.4904 94.028 19.4881C94.4263 19.4857 94.7848 19.7223 94.9394 20.0902L95.4314 21.2686C95.6282 21.7419 95.4244 22.2925 94.9675 22.5221L93.857 23.0774C93.7235 23.143 93.5735 23.1805 93.4259 23.1805H93.4235Z" fill="#110A1D"/>
    <path d="M82.5579 30.64C81.9604 30.6447 81.4239 30.2698 81.2201 29.7075L78.9498 23.459C78.8046 23.5293 78.6499 23.5832 78.493 23.623C78.3079 23.6699 78.1204 23.6933 77.9307 23.6933C77.8205 23.6933 77.7128 23.6886 77.6073 23.6746C76.4242 23.5246 75.5269 22.5102 75.5198 21.3153C75.5105 19.9939 76.5788 18.9115 77.9002 18.9021C79.2216 18.8927 80.304 19.9611 80.311 21.2825C80.311 21.5871 80.2595 21.8799 80.1517 22.154C80.0931 22.304 80.0205 22.4469 79.9362 22.5828L84.2541 24.6726L87.5576 19.8861C87.4194 19.8275 87.2858 19.7549 87.1593 19.6682C86.9203 19.5066 86.7118 19.3051 86.5431 19.0684C86.2573 18.6655 86.1027 18.1899 86.1003 17.6978C86.091 16.3765 87.1593 15.294 88.4807 15.2847C88.5393 15.2847 88.6002 15.2847 88.6588 15.2894C89.8419 15.369 90.7978 16.3179 90.8845 17.501C90.9244 18.061 90.7768 18.5975 90.4581 19.0544C90.2894 19.2934 90.0832 19.4972 89.8466 19.6588C89.7224 19.7455 89.5889 19.8182 89.4507 19.8767L92.8127 24.6141L97.0604 22.4891C96.9807 22.3368 96.9175 22.1775 96.8706 22.0111C96.8144 21.8096 96.784 21.5988 96.784 21.3856C96.784 21.2895 96.7886 21.1934 96.798 21.0997C96.9339 19.8955 97.9507 18.9818 99.162 18.9747C100.483 18.9654 101.566 20.0337 101.573 21.3551C101.582 22.6156 100.603 23.6746 99.3447 23.7613L99.1948 23.7659C98.9511 23.7659 98.7122 23.7331 98.4802 23.6629C98.3303 23.616 98.185 23.5574 98.0491 23.4825L95.9171 29.6091C95.7226 30.1738 95.1884 30.5533 94.591 30.558L82.5579 30.6376V30.64Z" fill="#110A1D"/>
    <path d="M28.7997 0.191067L87.917 0.191067C88.4058 0.191067 88.7968 0.587251 88.7968 1.07089C88.7968 1.55453 88.4006 1.95068 87.917 1.95068L28.7997 1.95068C28.3109 1.95068 27.9199 1.55453 27.9199 1.07089C27.9199 0.587251 28.3161 0.191067 28.7997 0.191067Z"/>
    <path d="M28.6711 47.4191L87.7883 47.4191C88.2771 47.4191 88.6681 47.8152 88.6681 48.2989C88.6681 48.7825 88.2719 49.1787 87.7883 49.1787L28.6711 49.1787C28.1823 49.1787 27.7913 48.7825 27.7913 48.2989C27.7913 47.8152 28.1874 47.4191 28.6711 47.4191Z"/>
    <path d="M95.3802 31.4595L81.773 31.5498C81.1998 31.5536 80.7382 32.0213 80.742 32.5945L80.7452 33.0795C80.749 33.6527 81.2168 34.1143 81.79 34.1105L95.3972 34.0202C95.9704 34.0164 96.432 33.5487 96.4282 32.9755L96.425 32.4905C96.4212 31.9173 95.9534 31.4557 95.3802 31.4595Z" fill="#110A1D"/>
    <path d="M27.9945 0.0103001C28.5531 0.0103001 29 0.40652 29 0.890242C29 1.37396 28.5472 1.77022 27.9945 1.77022C13.6709 1.77022 2.01682 11.9695 2.01682 24.5052C2.01682 37.0408 13.6709 47.2401 27.9945 47.2401C28.5531 47.2401 29 47.6363 29 48.1201C29 48.6038 28.5472 49 27.9945 49C12.5596 49 0 38.0082 0 24.5C0 10.9918 12.5596 -1.94817e-06 27.9945 -1.94817e-06V0.0103001Z"/>
  </symbol>
</svg>
