<svg width="114" height="50" viewBox="0 0 114 50" fill="none" xmlns="http://www.w3.org/2000/svg">
<path d="M71.0788 42.1694C61.4448 32.5354 61.4448 16.8614 71.0788 7.22744C80.7127 -2.40654 96.3867 -2.40654 106.021 7.22744C115.655 16.8614 115.655 32.5354 106.021 42.1694C96.3867 51.8034 80.7127 51.8034 71.0788 42.1694ZM104.856 8.39186C95.8642 -0.600171 81.2352 -0.600171 72.2455 8.39186C63.2535 17.3839 63.2535 32.0129 72.2455 41.0026C81.2375 49.9947 95.8666 49.9947 104.856 41.0026C113.848 32.0106 113.848 17.3815 104.856 8.39186Z" fill="white"/>
<path d="M71.0783 42.1696C67.9154 39.0067 65.6685 35.0472 64.5861 30.7222C64.5252 30.4762 64.5814 30.2161 64.7361 30.017C64.893 29.8155 65.132 29.7007 65.385 29.7007H71.3899C71.7436 29.7007 72.0576 29.9256 72.1701 30.2606C73.0252 32.791 74.4216 35.0331 76.3193 36.9309C78.2147 38.8263 80.4592 40.2226 82.9896 41.0801C83.3246 41.1926 83.5495 41.5065 83.5495 41.8603V47.8652C83.5495 48.1182 83.4323 48.3572 83.2332 48.5141C83.0317 48.6711 82.7716 48.725 82.5256 48.6641C78.2007 47.5817 74.2435 45.3372 71.0783 42.1743V42.1696ZM66.4651 31.3454C67.5569 34.9816 69.5413 38.3038 72.2427 41.0052C74.944 43.7065 78.2663 45.6909 81.9025 46.7827V42.439C79.3581 41.4901 77.0901 40.0305 75.1549 38.0953C73.2197 36.16 71.7601 33.8921 70.8088 31.3477H66.4651V31.3454Z" fill="white"/>
<path d="M93.7902 48.4436C93.6355 48.289 93.5488 48.0805 93.5488 47.8603V41.8554C93.5488 41.5016 93.7737 41.1877 94.1088 41.0752C96.6391 40.2201 98.8813 38.8237 100.779 36.926C102.677 35.0282 104.071 32.7861 104.928 30.2557C105.041 29.9207 105.355 29.6958 105.708 29.6958H111.713C111.966 29.6958 112.205 29.8129 112.362 30.0121C112.519 30.2112 112.573 30.4736 112.512 30.7173C111.427 35.0423 109.183 38.9994 106.02 42.1647C102.857 45.3299 98.8977 47.5744 94.5727 48.6568C94.3267 48.7178 94.0666 48.6615 93.8675 48.5069C93.8417 48.4835 93.8159 48.4624 93.7925 48.439L93.7902 48.4436ZM95.1959 42.4365V46.7802C98.8321 45.6884 102.154 43.704 104.856 41.0026C107.557 38.3013 109.539 34.979 110.633 31.3428H106.289C105.341 33.8872 103.881 36.1528 101.943 38.0904C100.008 40.0256 97.7403 41.4876 95.1959 42.4365Z" fill="white"/>
<path d="M64.802 19.4574C64.7786 19.4339 64.7552 19.4081 64.7364 19.3824C64.5795 19.1832 64.5256 18.9208 64.5865 18.6748C65.6689 14.3498 67.9134 10.3903 71.0786 7.22744C74.2439 4.06453 78.201 1.8177 82.526 0.735279C82.772 0.674364 83.0321 0.73059 83.2312 0.885221C83.4304 1.04219 83.5475 1.28117 83.5475 1.53421V7.53905C83.5475 7.89282 83.3226 8.20677 82.9876 8.31923C80.4573 9.17439 78.2151 10.5707 76.3173 12.4685C74.4219 14.3639 73.0256 16.6084 72.1681 19.1387C72.0556 19.4737 71.7417 19.6987 71.3879 19.6987H65.3831C65.1628 19.6987 64.952 19.612 64.7997 19.4597L64.802 19.4574ZM81.9005 2.61662C78.2643 3.70841 74.9421 5.69285 72.2407 8.3942C69.5394 11.0956 67.5573 14.4178 66.4631 18.054H70.8069C71.7557 15.5096 73.2154 13.244 75.1529 11.3064C77.0882 9.37119 79.3561 7.91157 81.9005 6.96035V2.61662Z" fill="white"/>
<path d="M101.945 11.3041C94.5605 3.91933 82.5415 3.91698 75.1567 11.3041C67.7695 18.6913 67.7719 30.708 75.1567 38.0928C82.5415 45.4776 94.5582 45.4799 101.945 38.0928C109.332 30.7056 109.33 18.6889 101.945 11.3041Z" fill="white"/>
<path d="M83.6268 23.2459C83.4792 23.2459 83.3292 23.2131 83.1934 23.1475L82.132 22.6344C81.6705 22.4095 81.4596 21.8636 81.6517 21.388L82.1391 20.1744C82.289 19.8042 82.6428 19.5629 83.0411 19.5605C83.2121 19.5605 83.3808 19.6027 83.5307 19.6894L84.7959 20.411C85.0325 20.5446 85.2036 20.7765 85.2645 21.0436C85.3254 21.3107 85.2715 21.5918 85.1169 21.8168L84.4234 22.8219C84.243 23.0843 83.9431 23.2436 83.6244 23.2436L83.6268 23.2459Z" fill="#110A1D"/>
<path d="M93.4235 23.1805C93.1049 23.1805 92.8027 23.0282 92.6199 22.7681L91.9335 21.8005C91.7742 21.5779 91.7179 21.2968 91.7742 21.0297C91.8304 20.7626 91.9991 20.5283 92.2357 20.3901L93.5407 19.6239C93.6883 19.5373 93.857 19.4904 94.028 19.4881C94.4263 19.4857 94.7848 19.7223 94.9394 20.0902L95.4314 21.2686C95.6282 21.7419 95.4244 22.2925 94.9675 22.5221L93.857 23.0774C93.7235 23.143 93.5735 23.1805 93.4259 23.1805H93.4235Z" fill="#110A1D"/>
<path d="M82.5579 30.64C81.9604 30.6447 81.4239 30.2698 81.2201 29.7075L78.9498 23.459C78.8046 23.5293 78.6499 23.5832 78.493 23.623C78.3079 23.6699 78.1204 23.6933 77.9307 23.6933C77.8205 23.6933 77.7128 23.6886 77.6073 23.6746C76.4242 23.5246 75.5269 22.5102 75.5198 21.3153C75.5105 19.9939 76.5788 18.9115 77.9002 18.9021C79.2216 18.8927 80.304 19.9611 80.311 21.2825C80.311 21.5871 80.2595 21.8799 80.1517 22.154C80.0931 22.304 80.0205 22.4469 79.9362 22.5828L84.2541 24.6726L87.5576 19.8861C87.4194 19.8275 87.2858 19.7549 87.1593 19.6682C86.9203 19.5066 86.7118 19.3051 86.5431 19.0684C86.2573 18.6655 86.1027 18.1899 86.1003 17.6978C86.091 16.3765 87.1593 15.294 88.4807 15.2847C88.5393 15.2847 88.6002 15.2847 88.6588 15.2894C89.8419 15.369 90.7978 16.3179 90.8845 17.501C90.9244 18.061 90.7768 18.5975 90.4581 19.0544C90.2894 19.2934 90.0832 19.4972 89.8466 19.6588C89.7224 19.7455 89.5889 19.8182 89.4507 19.8767L92.8127 24.6141L97.0604 22.4891C96.9807 22.3368 96.9175 22.1775 96.8706 22.0111C96.8144 21.8096 96.784 21.5988 96.784 21.3856C96.784 21.2895 96.7886 21.1934 96.798 21.0997C96.9339 19.8955 97.9507 18.9818 99.162 18.9747C100.483 18.9654 101.566 20.0337 101.573 21.3551C101.582 22.6156 100.603 23.6746 99.3447 23.7613L99.1948 23.7659C98.9511 23.7659 98.7122 23.7331 98.4802 23.6629C98.3303 23.616 98.185 23.5574 98.0491 23.4825L95.9171 29.6091C95.7226 30.1738 95.1884 30.5533 94.591 30.558L82.5579 30.6376V30.64Z" fill="#110A1D"/>
<path d="M28.7997 0.191067L87.917 0.191067C88.4058 0.191067 88.7968 0.587251 88.7968 1.07089C88.7968 1.55453 88.4006 1.95068 87.917 1.95068L28.7997 1.95068C28.3109 1.95068 27.9199 1.55453 27.9199 1.07089C27.9199 0.587251 28.3161 0.191067 28.7997 0.191067Z" fill="white"/>
<path d="M28.6711 47.4191L87.7883 47.4191C88.2771 47.4191 88.6681 47.8152 88.6681 48.2989C88.6681 48.7825 88.2719 49.1787 87.7883 49.1787L28.6711 49.1787C28.1823 49.1787 27.7913 48.7825 27.7913 48.2989C27.7913 47.8152 28.1874 47.4191 28.6711 47.4191Z" fill="white"/>
<path d="M95.3802 31.4595L81.773 31.5498C81.1998 31.5536 80.7382 32.0213 80.742 32.5945L80.7452 33.0795C80.749 33.6527 81.2168 34.1143 81.79 34.1105L95.3972 34.0202C95.9704 34.0164 96.432 33.5487 96.4282 32.9755L96.425 32.4905C96.4212 31.9173 95.9534 31.4557 95.3802 31.4595Z" fill="#110A1D"/>
<path d="M27.9945 0.0103001C28.5531 0.0103001 29 0.40652 29 0.890242C29 1.37396 28.5472 1.77022 27.9945 1.77022C13.6709 1.77022 2.01682 11.9695 2.01682 24.5052C2.01682 37.0408 13.6709 47.2401 27.9945 47.2401C28.5531 47.2401 29 47.6363 29 48.1201C29 48.6038 28.5472 49 27.9945 49C12.5596 49 0 38.0082 0 24.5C0 10.9918 12.5596 -1.94817e-06 27.9945 -1.94817e-06V0.0103001Z" fill="white"/>
</svg>
