<svg width="100" height="223" viewBox="0 0 100 223" fill="none" xmlns="http://www.w3.org/2000/svg">
<path d="M14.617 208.26C-4.87267 188.77 -4.87267 157.061 14.617 137.572C34.1068 118.082 65.8155 118.082 85.3052 137.572C104.795 157.061 104.795 188.77 85.3052 208.26C65.8155 227.75 34.1068 227.75 14.617 208.26ZM82.9496 139.927C64.7585 121.736 35.1637 121.736 16.9774 139.927C-1.21362 158.118 -1.21362 187.713 16.9774 205.899C35.1685 224.09 64.7633 224.09 82.9496 205.899C101.141 187.708 101.141 158.114 82.9496 139.927Z" fill="white"/>
<path d="M83.4927 162.313C83.3173 162.138 83.1752 161.915 83.0946 161.668C81.3646 156.55 78.5397 152.014 74.7005 148.174C70.8661 144.34 66.3254 141.515 61.2065 139.78C60.5288 139.548 60.0737 138.918 60.0737 138.202V126.054C60.0737 125.542 60.3107 125.059 60.7136 124.741C61.1212 124.424 61.6473 124.315 62.1402 124.438C70.8898 126.628 78.8999 131.168 85.2985 137.572C91.6971 143.975 96.2378 151.98 98.4276 160.73C98.5508 161.228 98.437 161.754 98.1242 162.161C97.8066 162.569 97.3232 162.801 96.8113 162.801H84.6634C84.2084 162.801 83.7913 162.616 83.4832 162.308L83.4927 162.313ZM77.0561 145.819C80.9711 149.734 83.924 154.322 85.8483 159.469H94.6358C92.4271 152.113 88.4125 145.392 82.9476 139.927C77.4827 134.462 70.7618 130.448 63.4105 128.244V137.031C68.5578 138.951 73.1459 141.904 77.0609 145.824L77.0561 145.819Z" fill="white"/>
<path d="M14.6156 208.26C8.217 201.861 3.6716 193.851 1.48185 185.101C1.35862 184.604 1.47238 184.078 1.7852 183.675C2.10276 183.267 2.58619 183.035 3.09808 183.035H15.246C15.9617 183.035 16.5968 183.49 16.8243 184.168C18.5543 189.287 21.3792 193.823 25.2183 197.662C29.0528 201.496 33.5935 204.321 38.7124 206.056C39.3902 206.283 39.8451 206.918 39.8451 207.634V219.782C39.8451 220.294 39.6081 220.777 39.2053 221.095C38.7976 221.412 38.2715 221.521 37.7739 221.398C29.0243 219.208 21.019 214.668 14.6156 208.269V208.26ZM5.28312 186.362C7.49183 193.718 11.5064 200.439 16.9713 205.904C22.4361 211.369 29.1571 215.384 36.5131 217.592V208.805C31.3658 206.885 26.7777 203.932 22.8627 200.017C18.9477 196.102 15.9949 191.514 14.0705 186.367H5.28312V186.362Z" fill="white"/>
<path d="M60.5619 220.953C60.2491 220.64 60.0737 220.218 60.0737 219.773V207.625C60.0737 206.909 60.5288 206.274 61.2065 206.046C66.3254 204.316 70.8613 201.492 74.7005 197.652C78.5397 193.813 81.3598 189.277 83.0945 184.158C83.322 183.481 83.9572 183.026 84.6729 183.026H96.8208C97.3327 183.026 97.8161 183.263 98.1337 183.665C98.4513 184.068 98.5603 184.599 98.437 185.092C96.2425 193.842 91.7019 201.847 85.3032 208.25C78.9046 214.654 70.8945 219.194 62.145 221.384C61.6473 221.507 61.1212 221.394 60.7183 221.081C60.6662 221.033 60.6141 220.991 60.5667 220.943L60.5619 220.953ZM63.4058 208.8V217.588C70.7618 215.379 77.4827 211.364 82.9476 205.9C88.4125 200.435 92.4223 193.714 94.6358 186.358H85.8483C83.9287 191.505 80.9759 196.088 77.0561 200.008C73.1411 203.923 68.5531 206.881 63.4058 208.8Z" fill="white"/>
<path d="M1.91864 162.313C1.87125 162.266 1.82386 162.213 1.78595 162.161C1.46839 161.758 1.35936 161.228 1.4826 160.73C3.67235 151.98 8.21301 143.97 14.6164 137.572C21.0197 131.173 29.0251 126.628 37.7746 124.438C38.2723 124.315 38.7984 124.428 39.2013 124.741C39.6041 125.059 39.8412 125.542 39.8412 126.054V138.202C39.8412 138.918 39.3862 139.553 38.7084 139.78C33.5895 141.51 29.0535 144.335 25.2143 148.174C21.3799 152.009 18.5551 156.549 16.8203 161.668C16.5928 162.346 15.9577 162.801 15.242 162.801H3.09411C2.64858 162.801 2.22198 162.626 1.9139 162.318L1.91864 162.313ZM36.5091 128.244C29.1531 130.453 22.4321 134.467 16.9673 139.932C11.5024 145.397 7.49257 152.118 5.27912 159.474H14.0665C15.9861 154.327 18.939 149.743 22.8587 145.824C26.7737 141.909 31.3618 138.956 36.5091 137.031V128.244Z" fill="white"/>
<path d="M77.0603 145.819C62.1207 130.879 37.806 130.874 22.8664 145.819C7.92205 160.763 7.92679 185.073 22.8664 200.013C37.806 214.952 62.116 214.957 77.0603 200.013C92.0046 185.068 91.9999 160.758 77.0603 145.819Z" fill="white"/>
<path d="M63.7792 186.593L36.2515 186.776C35.0919 186.784 34.1581 187.73 34.1658 188.889L34.1723 189.871C34.18 191.03 35.1263 191.964 36.2859 191.956L63.8135 191.774C64.9732 191.766 65.907 190.82 65.8993 189.66L65.8928 188.679C65.8851 187.519 64.9388 186.586 63.7792 186.593Z" fill="#110A1D"/>
<path d="M40.0021 169.977C39.7035 169.977 39.4002 169.911 39.1253 169.778L36.9781 168.74C36.0444 168.285 35.6178 167.181 36.0065 166.219L36.9924 163.764C37.2957 163.015 38.0114 162.526 38.8172 162.522C39.1632 162.522 39.5044 162.607 39.8077 162.782L42.3672 164.242C42.8459 164.512 43.1919 164.982 43.3152 165.522C43.4384 166.062 43.3294 166.631 43.0165 167.086L41.6136 169.119C41.2487 169.65 40.642 169.973 39.9973 169.973L40.0021 169.977Z" fill="#110A1D"/>
<path d="M59.8208 169.845C59.1762 169.845 58.5649 169.537 58.1952 169.01L56.8064 167.053C56.4841 166.603 56.3704 166.034 56.4841 165.494C56.5979 164.953 56.9391 164.479 57.4178 164.2L60.0578 162.65C60.3564 162.474 60.6977 162.38 61.0437 162.375C61.8495 162.37 62.5747 162.849 62.8875 163.593L63.8828 165.977C64.281 166.934 63.8686 168.048 62.9444 168.513L60.6977 169.636C60.4276 169.769 60.1242 169.845 59.8256 169.845H59.8208Z" fill="#110A1D"/>
<path d="M37.8395 184.936C36.6309 184.945 35.5455 184.187 35.1332 183.049L30.5404 170.408C30.2465 170.551 29.9337 170.66 29.6161 170.74C29.2417 170.835 28.8625 170.882 28.4786 170.882C28.2558 170.882 28.0378 170.873 27.8245 170.845C25.4309 170.541 23.6157 168.489 23.6014 166.072C23.5825 163.398 25.7438 161.209 28.417 161.19C31.0902 161.171 33.2799 163.332 33.2941 166.005C33.2941 166.621 33.1898 167.214 32.9718 167.768C32.8533 168.072 32.7064 168.361 32.5358 168.636L41.2711 172.864L47.9541 163.18C47.6745 163.062 47.4043 162.915 47.1483 162.74C46.6649 162.413 46.243 162.005 45.9018 161.526C45.3235 160.711 45.0107 159.749 45.006 158.753C44.987 156.08 47.1483 153.891 49.8215 153.872C49.94 153.872 50.0633 153.872 50.1818 153.881C52.5753 154.042 54.5091 155.962 54.6845 158.355C54.7651 159.488 54.4665 160.574 53.8219 161.498C53.4806 161.981 53.0635 162.394 52.5848 162.721C52.3336 162.896 52.0634 163.043 51.7838 163.161L58.5853 172.745L67.1784 168.446C67.0172 168.138 66.8893 167.816 66.7945 167.479C66.6808 167.072 66.6191 166.645 66.6191 166.214C66.6191 166.019 66.6286 165.825 66.6475 165.636C66.9224 163.199 68.9795 161.351 71.4299 161.337C74.1031 161.318 76.2929 163.479 76.3071 166.152C76.3261 168.702 74.3448 170.845 71.7996 171.02L71.4963 171.029C71.0033 171.029 70.5199 170.963 70.0507 170.821C69.7473 170.726 69.4534 170.608 69.1785 170.456L64.8654 182.85C64.472 183.992 63.3913 184.76 62.1827 184.77L37.8395 184.931V184.936Z" fill="#110A1D"/>
<path d="M99.5402 52.0401V171.635C99.5402 172.624 98.7387 173.415 97.7603 173.415C96.7819 173.415 95.9805 172.614 95.9805 171.635V52.0401C95.9805 51.0513 96.7819 50.2603 97.7603 50.2603C98.7387 50.2603 99.5402 51.0617 99.5402 52.0401Z" fill="white"/>
<path d="M99.0902 49.5555C99.0902 50.5443 98.2887 51.3354 97.3103 51.3354C96.3319 51.3354 95.5304 50.5339 95.5304 49.5555C95.5304 24.2001 74.9005 3.57015 49.5451 3.57015C24.1896 3.57015 3.55974 24.2001 3.55974 49.5555C3.55974 50.5443 2.75825 51.3354 1.77984 51.3354C0.801424 51.3354 0 50.5339 0 49.5555C0 22.2328 22.2328 0 49.5555 0C76.8782 0 99.111 22.2328 99.111 49.5555H99.0902Z" fill="white"/>
<path d="M3.99724 51.7799V171.375C3.99724 172.364 3.19581 173.155 2.2174 173.155C1.23899 173.155 0.4375 172.354 0.4375 171.375V51.7799C0.4375 50.791 1.23899 50 2.2174 50C3.19581 50 3.99724 50.8015 3.99724 51.7799Z" fill="white"/>
</svg>
